<?xml version="1.0" encoding="UTF-8"?> <svg xmlns="http://www.w3.org/2000/svg" width="179" height="40" viewBox="0 0 179 40" fill="none"><g clip-path="url(#clip0_927_346)"><path d="M51.78 20.8021C51.8155 20.1188 51.8155 19.4341 51.78 18.7508H12.858C12.8498 18.921 12.8426 19.0923 12.8385 19.2636H4.68467L4.68056 19.52H0.289795V20.0328H4.67954L4.68569 20.2892H12.8385C12.8426 20.4615 12.8488 20.6318 12.859 20.8021H24.0334C23.991 20.4618 23.9697 20.1193 23.9698 19.7764H40.3801C40.3801 20.1241 40.3595 20.4667 40.3165 20.8021H51.78ZM51.699 17.7251H40.1226C40.0326 17.3761 39.9195 17.0335 39.7842 16.6995H24.5688C24.4344 17.0318 24.3206 17.3733 24.2303 17.7251H12.938C12.9565 17.5538 12.977 17.3826 12.9995 17.2123H4.84569L4.88056 16.9621H0.289795V16.4492H4.96159L5.00877 16.1867H13.1626C13.1934 16.0154 13.2283 15.8441 13.2652 15.6738H51.3739C51.5175 16.3456 51.6272 17.0297 51.699 17.7251ZM51.1247 14.6482H38.5811C38.2852 14.279 37.9582 13.9358 37.6036 13.6226H26.7483C26.3944 13.9364 26.0662 14.279 25.7708 14.6482H13.5144C13.5606 14.4769 13.6098 14.3056 13.6611 14.1354H5.50723L5.59749 13.8472H0.289795V13.3333H5.76877L5.84877 13.1087H14.0026C14.0642 12.9364 14.1298 12.7662 14.1975 12.5959H50.4406C50.7052 13.2626 50.9339 13.9487 51.1247 14.6482ZM49.9995 11.5713H14.6385C14.7185 11.399 14.8006 11.2287 14.8857 11.0585H6.73287L6.87749 10.7754H0.289795V10.2626H7.15544L7.28569 10.0328H15.4395C15.539 9.86051 15.6416 9.68923 15.7462 9.52H48.8918C49.3 10.1785 49.6713 10.8636 49.9995 11.5713ZM12.938 21.8277H51.7C51.6272 22.5231 51.5175 23.2082 51.3739 23.879H39.2836C39.4734 23.5508 39.6416 23.2082 39.7852 22.8533H24.5667C24.7103 23.2082 24.8775 23.5508 25.0672 23.879H13.2642C13.2276 23.7085 13.1935 23.5376 13.1616 23.3662H5.00877C4.99206 23.276 4.976 23.1858 4.96056 23.0954H0.289795V22.5826H4.87954C4.86776 22.502 4.85648 22.4213 4.84569 22.3405H12.9995C12.9768 22.1699 12.9563 21.9989 12.938 21.8277ZM13.5134 24.9046H51.1236C50.9339 25.6051 50.7052 26.2892 50.4406 26.9559H36.1513C36.671 26.6674 37.158 26.3235 37.6036 25.9303H26.7483C27.1939 26.3235 27.6809 26.6674 28.2006 26.9559H14.1975C14.1302 26.7859 14.0652 26.6149 14.0026 26.4431H5.84877L5.76056 26.1959H0.289795V25.6831H5.59031C5.56233 25.5947 5.53498 25.5062 5.50826 25.4174H13.6611C13.6098 25.2472 13.5606 25.0769 13.5134 24.9046ZM14.6385 27.9815H49.9995C49.6716 28.6868 49.3017 29.3718 48.8918 30.0328H15.7462C15.641 29.8635 15.5384 29.6925 15.4385 29.52H7.28569C7.23441 29.4318 7.18415 29.3436 7.13492 29.2544H0.289795V28.7415H6.85903L6.73287 28.4954H14.8867C14.8015 28.3257 14.7187 28.1547 14.6385 27.9826V27.9815ZM17.6436 32.5969C17.7944 32.7713 17.9493 32.9415 18.1072 33.1097H46.5308C47.1362 32.4647 47.6971 31.7794 48.2098 31.0585H16.4283C16.5513 31.2318 16.6765 31.4031 16.8057 31.5713H8.65185L8.85492 31.8328H0.289795V32.3456H9.27441C9.34518 32.4308 9.41697 32.5138 9.48979 32.5969H17.6436ZM21.0457 35.6738C21.2949 35.8513 21.5483 36.0226 21.8047 36.1867H42.8334C43.7774 35.5804 44.6675 34.8941 45.4939 34.1354H19.1452C19.3349 34.3097 19.5288 34.481 19.7257 34.6482H11.5718C11.6826 34.7426 11.7944 34.8349 11.9072 34.9251H0.289795V35.4379H12.5688C12.6754 35.5179 12.7842 35.5969 12.8929 35.6738H21.0467H21.0457ZM28.2426 38.8369C29.5575 39.1169 30.9206 39.2636 32.3185 39.2636C35.4508 39.2636 38.4098 38.5251 41.0313 37.2123H23.6057C23.9708 37.3949 24.3411 37.5662 24.7175 37.7251H16.5636C16.7093 37.7867 16.8559 37.8472 17.0026 37.9056H0.289795V38.4185H18.4693C20.2713 38.9682 22.1842 39.2636 24.1657 39.2636C25.5636 39.2636 26.9277 39.1169 28.2426 38.8369ZM16.4283 8.49436H48.2098C47.6971 7.77345 47.1362 7.08812 46.5308 6.44308H18.1072C17.9493 6.61128 17.7944 6.78154 17.6426 6.9559H9.48979L9.30928 7.16718H0.289795V7.68H8.88672C8.80774 7.77949 8.72979 7.88 8.65287 7.98154H16.8057C16.6765 8.15077 16.5513 8.32205 16.4283 8.49436ZM19.1442 5.41744H45.4929C44.6668 4.65872 43.777 3.97243 42.8334 3.36615H21.8047C21.5483 3.53128 21.2949 3.70256 21.0457 3.87897H12.8929C12.7801 3.96 12.6672 4.04103 12.5565 4.1241H0.289795V4.63692H11.8959C11.7872 4.72513 11.6795 4.81436 11.5729 4.90462H19.7257C19.5288 5.0718 19.3349 5.24308 19.1442 5.41744ZM23.6067 2.34051H41.0324C38.3276 0.987113 35.344 0.284667 32.3195 0.289231C30.9206 0.289231 29.5575 0.436923 28.2426 0.716923C26.9024 0.432001 25.5359 0.28865 24.1657 0.289231C21.977 0.289231 19.8734 0.650256 17.9093 1.31487H0.289795V1.82769H24.7175C24.3419 1.9869 23.9715 2.15792 23.6067 2.34051ZM114.39 0C115.064 0 115.593 0.168205 115.978 0.504615C116.379 0.825641 116.579 1.27385 116.579 1.85231C116.579 2.42974 116.379 2.88615 115.978 3.22256C115.593 3.54359 115.064 3.70462 114.39 3.70462C113.717 3.70462 113.18 3.54359 112.779 3.22256C112.394 2.88615 112.202 2.42974 112.202 1.85231C112.202 1.27487 112.394 0.826667 112.779 0.504615C113.18 0.168205 113.717 0 114.39 0ZM116.266 5.94051V16.4031C116.266 17.0769 116.379 17.5344 116.604 17.7744C116.844 18.0154 117.245 18.1354 117.806 18.1354V18.64C117.357 18.6181 116.908 18.602 116.459 18.5918C115.842 18.5595 115.224 18.5435 114.607 18.5436C113.982 18.5436 113.348 18.56 112.707 18.5918C112.226 18.6024 111.745 18.6185 111.264 18.64V18.1354C111.825 18.1354 112.218 18.0154 112.443 17.7744C112.683 17.5344 112.804 17.0769 112.804 16.4031V8.82667C112.804 8.10564 112.691 7.57539 112.466 7.24C112.258 6.88718 111.857 6.71077 111.264 6.71077V6.20513C111.777 6.25333 112.274 6.27692 112.755 6.27692C113.428 6.27692 114.054 6.25333 114.631 6.20513C115.224 6.14154 115.77 6.05333 116.266 5.94051Z" fill="#303030"></path><path fill-rule="evenodd" clip-rule="evenodd" d="M123.035 8.1475V5.94032C122.539 6.05314 121.993 6.14135 121.401 6.20494C120.807 6.25314 120.181 6.27673 119.524 6.27673C119.043 6.27673 118.546 6.25314 118.032 6.20494V6.71058C118.61 6.71058 119.011 6.88699 119.235 7.23981C119.46 7.57622 119.572 8.10545 119.572 8.82648V20.8531C119.572 21.4942 119.46 21.927 119.235 22.1516C119.027 22.3762 118.658 22.488 118.129 22.488V22.9937L119.404 22.9219C119.989 22.9056 120.574 22.8973 121.16 22.8972C121.977 22.8972 122.747 22.9054 123.468 22.9208C124.206 22.9537 124.783 22.9772 125.201 22.9926V22.488C124.527 22.488 123.997 22.3598 123.613 22.1034C123.228 21.8634 123.035 21.366 123.035 20.6121V18.2019C123.247 18.3783 123.495 18.5239 123.781 18.6398C124.294 18.8654 124.863 18.9772 125.489 18.9772C126.339 18.9772 127.1 18.8244 127.774 18.5198C128.459 18.2185 129.061 17.7566 129.53 17.1731C130.026 16.5639 130.404 15.8183 130.66 14.9362C130.933 14.0542 131.069 13.0285 131.069 11.8572C131.069 10.527 130.876 9.42032 130.492 8.53827C130.107 7.63981 129.593 6.97519 128.952 6.54237C128.312 6.09338 127.546 5.85761 126.764 5.86853C125.833 5.86853 125.016 6.10853 124.31 6.58955C123.755 6.96391 123.331 7.48289 123.035 8.14853V8.1475ZM123.035 8.97417V17.6931C123.169 17.8511 123.33 17.9824 123.516 18.087C123.821 18.247 124.166 18.327 124.551 18.327C125.272 18.327 125.842 18.087 126.259 17.606C126.675 17.1085 126.972 16.4193 127.148 15.5372C127.341 14.6398 127.437 13.5731 127.437 12.3383C127.437 10.9598 127.349 9.87673 127.173 9.09109C126.996 8.30545 126.755 7.74442 126.451 7.40801C126.146 7.07058 125.778 6.90237 125.344 6.90237C124.768 6.90237 124.238 7.12801 123.757 7.57622C123.395 7.92494 123.154 8.3916 123.035 8.97417Z" fill="#303030"></path><path d="M136.591 5.8684C137.265 5.8684 137.85 5.9566 138.347 6.13301C138.86 6.29301 139.229 6.45404 139.454 6.61404C139.999 6.98327 140.336 6.74224 140.464 5.89199H140.969C140.937 6.34122 140.912 6.89506 140.897 7.55147C140.881 8.19352 140.872 9.05096 140.872 10.1258H140.368C140.285 9.52446 140.132 8.93501 139.91 8.36993C139.706 7.82153 139.367 7.33336 138.925 6.95045C138.507 6.58122 137.963 6.3966 137.289 6.3966C136.824 6.3966 136.431 6.53404 136.11 6.80686C135.789 7.06327 135.629 7.43968 135.629 7.93711C135.629 8.41814 135.774 8.84276 136.062 9.21199C136.351 9.56481 136.72 9.90942 137.169 10.2458C137.633 10.5669 138.114 10.9115 138.612 11.2797C139.141 11.6807 139.622 12.0817 140.055 12.4828C140.47 12.8455 140.82 13.2767 141.089 13.7576C141.346 14.2222 141.474 14.7751 141.474 15.4171C141.474 16.1381 141.265 16.771 140.849 17.3166C140.431 17.8458 139.879 18.2551 139.189 18.5433C138.515 18.8325 137.762 18.9771 136.929 18.9771C136.491 18.9821 136.055 18.9335 135.629 18.8325C135.296 18.7494 134.973 18.6283 134.667 18.4715C134.459 18.3751 134.258 18.2869 134.066 18.2069C133.903 18.1169 133.734 18.0367 133.561 17.9669C133.401 17.9187 133.256 17.974 133.128 18.1351C133.016 18.2951 132.928 18.5197 132.863 18.8079H132.359C132.39 18.2951 132.415 17.6694 132.43 16.932C132.447 16.1945 132.455 15.2161 132.455 13.9987H132.96C133.056 14.8643 133.232 15.6335 133.489 16.3063C133.745 16.9648 134.09 17.4858 134.523 17.8704C134.972 18.2397 135.533 18.4243 136.207 18.4243C136.48 18.4243 136.744 18.3679 137.001 18.2551C137.257 18.1422 137.465 17.9576 137.626 17.7012C137.803 17.4448 137.891 17.1166 137.891 16.7166C137.891 16.0099 137.658 15.4243 137.192 14.9597C136.744 14.4951 136.167 13.9894 135.461 13.4448C134.948 13.0274 134.459 12.6192 133.994 12.2181C133.564 11.8239 133.191 11.3705 132.888 10.8715C132.595 10.3592 132.445 9.77742 132.455 9.18737C132.455 8.46634 132.647 7.85711 133.031 7.35968C133.424 6.85706 133.949 6.47383 134.547 6.25301C135.198 5.99482 135.892 5.86424 136.591 5.8684ZM166.449 6.13301C166.031 5.9566 165.487 5.8684 164.813 5.8684C164.059 5.86074 163.314 6.04272 162.649 6.39763C161.991 6.73404 161.47 7.30327 161.085 8.10532V5.94122C160.588 6.05301 160.043 6.14122 159.45 6.20481C158.872 6.25301 158.247 6.2766 157.574 6.2766C157.093 6.2766 156.595 6.25301 156.083 6.20481V6.71045C156.675 6.71045 157.076 6.88686 157.285 7.23968C157.509 7.57609 157.621 8.10532 157.621 8.82634V16.4028C157.621 17.0766 157.501 17.534 157.261 17.774C157.036 18.0151 156.644 18.1351 156.083 18.1351V18.6397C156.563 18.6181 157.045 18.6021 157.526 18.5915C158.15 18.5598 158.776 18.5437 159.402 18.5433C159.963 18.5433 160.508 18.5597 161.036 18.5915C161.582 18.6079 161.983 18.6243 162.24 18.6397V18.1351C161.823 18.1351 161.526 18.0151 161.349 17.774C161.173 17.534 161.085 17.0766 161.085 16.4028V9.7166C161.085 9.18737 161.189 8.71455 161.397 8.29711C161.622 7.86429 161.91 7.52788 162.263 7.28788C162.602 7.05179 163.005 6.92574 163.418 6.92686C163.787 6.92686 164.059 7.01506 164.235 7.19147C164.428 7.35147 164.556 7.58429 164.621 7.88891C164.685 8.17711 164.716 8.52173 164.716 8.92275V16.4028C164.716 17.0766 164.628 17.534 164.452 17.774C164.292 18.0151 163.995 18.1351 163.563 18.1351V18.6397C163.851 18.6243 164.275 18.6079 164.838 18.5915C165.975 18.5266 167.115 18.5266 168.253 18.5915C168.846 18.6079 169.287 18.6243 169.575 18.6397V18.1351C169.062 18.1351 168.701 18.0151 168.493 17.774C168.285 17.534 168.18 17.0766 168.18 16.4028V9.82327L168.179 9.7484L168.175 9.50532C168.212 9.10328 168.319 8.71091 168.493 8.34634C168.717 7.9125 169.006 7.56788 169.359 7.31147C169.711 7.05506 170.097 6.92686 170.513 6.92686C170.93 6.92686 171.235 7.01506 171.427 7.19147C171.635 7.35147 171.772 7.58429 171.836 7.88891C171.916 8.17711 171.956 8.52173 171.956 8.92275V16.4028C171.956 17.0766 171.868 17.534 171.692 17.774C171.532 18.0151 171.235 18.1351 170.802 18.1351V18.6397C171.091 18.6243 171.515 18.6079 172.076 18.5915C172.645 18.5592 173.215 18.5431 173.784 18.5433C174.378 18.5433 174.979 18.5597 175.588 18.5915C176.197 18.6079 176.655 18.6243 176.96 18.6397V18.1351C176.399 18.1351 175.997 18.0151 175.756 17.774C175.532 17.534 175.42 17.0766 175.42 16.4028V9.93301C175.42 9.13096 175.364 8.48993 175.252 8.00891C175.139 7.51147 174.955 7.11147 174.698 6.80686C174.442 6.51763 174.105 6.29404 173.688 6.13301C173.271 5.9566 172.726 5.8684 172.053 5.8684C171.235 5.8684 170.465 6.0366 169.744 6.37301C169.053 6.70327 168.493 7.33301 168.063 8.26224C168.048 8.17734 168.031 8.09286 168.012 8.00891C167.9 7.51147 167.715 7.11147 167.459 6.80686C167.203 6.51763 166.865 6.29404 166.449 6.13301ZM154.195 16.0181V5.94019C153.698 6.05301 153.153 6.14122 152.56 6.20481C151.983 6.25301 151.357 6.2766 150.684 6.2766C150.203 6.2766 149.706 6.25301 149.192 6.20481V6.71045C149.786 6.71045 150.187 6.88686 150.395 7.23968C150.62 7.57609 150.732 8.10532 150.732 8.82634V15.1279C150.732 15.6571 150.62 16.1381 150.395 16.571C150.205 16.9672 149.915 17.3072 149.553 17.5576C149.217 17.7984 148.812 17.9249 148.399 17.9187C147.999 17.9187 147.694 17.8376 147.485 17.6776C147.269 17.4885 147.117 17.2363 147.052 16.9566C146.984 16.608 146.951 16.2533 146.955 15.8981V5.94019C146.459 6.05301 145.913 6.14122 145.321 6.20481C144.743 6.25301 144.118 6.2766 143.445 6.2766C142.964 6.2766 142.466 6.25301 141.953 6.20481V6.71045C142.546 6.71045 142.947 6.88686 143.155 7.23968C143.38 7.57609 143.492 8.10532 143.492 8.82634V14.9115C143.492 15.6971 143.548 16.3392 143.661 16.8356C143.773 17.333 143.966 17.734 144.237 18.0387C144.479 18.3115 144.807 18.5361 145.224 18.7125C145.641 18.8879 146.186 18.9771 146.86 18.9771C147.694 18.9771 148.447 18.8079 149.121 18.4715C149.81 18.1187 150.347 17.5412 150.732 16.7402V18.9043C151.269 18.772 151.816 18.6835 152.368 18.6397C152.945 18.5915 153.57 18.5679 154.244 18.5679C154.741 18.5679 155.238 18.5915 155.735 18.6397V18.1351C155.158 18.1351 154.756 17.9669 154.532 17.6294C154.307 17.2766 154.195 16.7402 154.195 16.0192V16.0181Z" fill="#303030"></path><path fill-rule="evenodd" clip-rule="evenodd" d="M107.67 6.51756C106.788 6.08474 105.762 5.86833 104.591 5.86833C103.453 5.86833 102.434 6.08474 101.537 6.51756C100.655 6.95038 99.9575 7.64782 99.4447 8.60987C98.9473 9.57192 98.698 10.8468 98.698 12.4345C98.698 14.0222 98.9473 15.296 99.4437 16.2591C99.9565 17.2047 100.654 17.894 101.536 18.3268C102.434 18.7596 103.453 18.977 104.591 18.977C105.762 18.977 106.788 18.7596 107.67 18.3268C108.551 17.894 109.242 17.2047 109.738 16.2591C110.235 15.297 110.484 14.0222 110.484 12.4345C110.484 10.8468 110.235 9.57295 109.738 8.60987C109.242 7.64782 108.551 6.95038 107.67 6.51756ZM102.98 7.79243C103.413 6.83038 103.95 6.34936 104.591 6.34936C105.249 6.34936 105.786 6.83038 106.203 7.79243C106.635 8.73808 106.852 10.2858 106.852 12.4345C106.852 14.5832 106.635 16.1309 106.203 17.0765C105.786 18.0222 105.249 18.496 104.591 18.496C103.95 18.496 103.413 18.0222 102.98 17.0765C102.547 16.1309 102.331 14.5832 102.331 12.4345C102.331 10.2858 102.546 8.73808 102.98 7.79243ZM90.855 23.1617C89.8601 23.1617 88.9709 23.0735 88.1852 22.897C87.416 22.737 86.8068 22.4806 86.3575 22.1278C85.9247 21.7904 85.7083 21.374 85.7083 20.8765C85.7083 20.3791 85.9319 19.9309 86.3811 19.5299C86.8304 19.1453 87.496 18.8406 88.378 18.616L88.5934 19.0006C88.3181 19.2074 88.0889 19.4694 87.9206 19.7699C87.7924 20.0591 87.7278 20.3555 87.7278 20.6601C87.7278 21.334 88.0324 21.8468 88.6427 22.1986C89.2683 22.5678 90.1093 22.7524 91.1678 22.7524C91.8888 22.7524 92.5309 22.656 93.0919 22.4642C93.6693 22.2714 94.1175 21.9822 94.4386 21.5986C94.776 21.2129 94.9442 20.7401 94.9442 20.1791C94.9442 19.6981 94.7678 19.2888 94.415 18.9524C94.0621 18.6314 93.3565 18.4714 92.298 18.4714H90.8068C90.1503 18.4714 89.5719 18.3996 89.0755 18.255C88.5934 18.1114 88.217 17.8858 87.9442 17.5812C87.6724 17.2612 87.536 16.8601 87.536 16.3791C87.536 15.7053 87.8006 15.1124 88.3298 14.5986C88.7442 14.1965 89.3165 13.814 90.0468 13.4519C89.5667 13.3922 89.0951 13.2769 88.6416 13.1083C87.9206 12.8355 87.3514 12.4181 86.935 11.857C86.5175 11.296 86.3093 10.575 86.3093 9.69295C86.3093 8.8109 86.5175 8.08885 86.935 7.52782C87.3514 6.95038 87.9206 6.53295 88.6427 6.27654C89.3637 6.00474 90.1811 5.86833 91.095 5.86833C92.0098 5.86833 92.8273 6.00474 93.5483 6.27756C94.0242 6.44577 94.4324 6.68474 94.776 6.99243C94.9801 6.69808 95.2283 6.43551 95.5206 6.20474C96.0662 5.78833 96.6519 5.5791 97.2765 5.5791C97.7893 5.5791 98.175 5.72372 98.4314 6.01295C98.7042 6.28474 98.8406 6.64577 98.8406 7.095C98.8406 7.57602 98.7114 7.93602 98.455 8.17705C98.1986 8.40269 97.9103 8.51449 97.5893 8.51449C97.307 8.51075 97.0349 8.40844 96.8201 8.22526C96.5944 8.03244 96.4673 7.74423 96.4355 7.35961C96.4078 7.015 96.5042 6.58833 96.7247 6.07756C96.257 6.27654 95.896 6.5032 95.6416 6.75859C95.4499 6.94347 95.2824 7.15198 95.1432 7.3791C95.1821 7.42731 95.2201 7.47756 95.256 7.52782C95.6734 8.08885 95.8816 8.80987 95.8816 9.69192C95.8816 10.574 95.6734 11.296 95.256 11.857C94.8396 12.4181 94.2703 12.8355 93.5483 13.1083C92.8273 13.3801 92.0098 13.5165 91.095 13.5165C90.9582 13.5167 90.8214 13.5136 90.6847 13.5073C90.4683 13.654 90.2601 13.8099 90.0611 13.974C89.9375 14.0707 89.8384 14.195 89.7716 14.3369C89.7048 14.4789 89.6722 14.6346 89.6765 14.7914C89.6765 15.3042 89.9975 15.5606 90.6385 15.5606H93.2601C94.1421 15.5606 94.9278 15.6653 95.617 15.8735C96.3227 16.0827 96.8755 16.4273 97.2765 16.9083C97.6939 17.3729 97.9021 17.9822 97.9021 18.736C97.9021 19.5217 97.6457 20.2509 97.1329 20.9247C96.6355 21.5986 95.8662 22.135 94.8232 22.536C93.7811 22.9535 92.458 23.1617 90.855 23.1617ZM91.095 13.0837C91.5288 13.0837 91.8642 12.8437 92.1052 12.3627C92.3462 11.8653 92.4662 10.975 92.4662 9.69295C92.4662 8.40987 92.3462 7.52782 92.1052 7.04679C91.8652 6.54936 91.5288 6.30115 91.096 6.30115C90.6786 6.30115 90.3421 6.54936 90.0857 7.04679C89.8447 7.52782 89.7247 8.40987 89.7247 9.69295C89.7247 10.975 89.8447 11.8653 90.0857 12.3627C90.3421 12.8437 90.6786 13.0837 91.095 13.0837ZM82.5945 6.51756C81.7124 6.08474 80.6868 5.86833 79.5165 5.86833C78.378 5.86833 77.3596 6.08474 76.4621 6.51756C75.5801 6.95038 74.8827 7.64782 74.3698 8.60987C73.8724 9.57192 73.6232 10.8468 73.6232 12.4345C73.6232 14.0222 73.8724 15.296 74.3688 16.2591C74.8816 17.2047 75.5791 17.894 76.4611 18.3268C77.3596 18.7596 78.378 18.977 79.5165 18.977C80.6868 18.977 81.7134 18.7596 82.5945 18.3268C83.4765 17.894 84.1657 17.2047 84.6632 16.2591C85.1606 15.297 85.4088 14.0222 85.4088 12.4345C85.4088 10.8468 85.1606 9.57295 84.6632 8.60987C84.1668 7.64782 83.4765 6.95038 82.5945 6.51756ZM77.9042 7.79243C78.338 6.83038 78.8745 6.34936 79.5165 6.34936C80.1729 6.34936 80.7103 6.83038 81.1268 7.79243C81.5606 8.73808 81.777 10.2858 81.777 12.4345C81.777 14.5832 81.5606 16.1309 81.1278 17.0765C80.7103 18.0222 80.1739 18.496 79.5165 18.496C78.8745 18.496 78.337 18.0222 77.9042 17.0765C77.4714 16.1309 77.255 14.5832 77.255 12.4345C77.255 10.2858 77.4714 8.73808 77.9042 7.79243Z" fill="#303030"></path><path d="M67.1452 1.61133V2.09338C66.6006 2.10876 66.1832 2.17235 65.895 2.28517C65.763 2.32984 65.6438 2.40564 65.5474 2.50615C65.451 2.60667 65.3802 2.72894 65.3411 2.86261C65.2457 3.13441 65.1975 3.56825 65.1975 4.16107V16.3795C65.1975 16.8759 65.2293 17.2452 65.2939 17.4862C65.3739 17.7262 65.5185 17.8862 65.7267 17.9672C65.9514 18.0472 66.2806 18.0872 66.7124 18.0872H67.8919C68.4355 18.0872 68.9493 17.959 69.4303 17.7026C69.9124 17.4462 70.3442 17.0852 70.7288 16.6195C71.1345 16.1024 71.4592 15.5266 71.6919 14.9118C71.9483 14.2554 72.1401 13.5252 72.2683 12.7231H72.8221C72.7739 13.2688 72.7503 13.9744 72.7503 14.84C72.7503 15.2093 72.7575 15.7457 72.7739 16.4513C72.7903 17.157 72.8375 17.8872 72.9175 18.64C71.9962 18.6061 71.0743 18.59 70.1524 18.5918C69.1267 18.5765 68.2119 18.5683 67.4098 18.5683H65.8714C65.2457 18.5683 64.5719 18.5765 63.8508 18.5918C63.1288 18.5918 62.3996 18.6 61.6621 18.6165C60.9237 18.6165 60.2262 18.6247 59.5698 18.64V18.159C60.0826 18.1272 60.4673 18.0626 60.7237 17.9672C60.9801 17.8708 61.1483 17.678 61.2293 17.3898C61.3247 17.1006 61.3729 16.6677 61.3729 16.0903V4.16107C61.3729 3.56723 61.3247 3.13543 61.2293 2.86261C61.1977 2.72919 61.1325 2.60607 61.0399 2.505C60.9472 2.40392 60.8303 2.32824 60.7001 2.28517C60.4437 2.17235 60.0662 2.10876 59.5698 2.09235V1.61133C60.836 1.65824 62.1028 1.68218 63.3698 1.68312C64.0755 1.68312 64.7647 1.67594 65.4375 1.65953C66.1278 1.64312 66.697 1.62774 67.1452 1.61133Z" fill="#303030"></path><path fill-rule="evenodd" clip-rule="evenodd" d="M174.516 38.5161C174.483 38.3437 174.505 38.1191 174.586 37.8422L177.974 25.5684C177.432 25.7908 176.87 25.9641 176.297 26.0863C175.709 26.2022 175.035 26.2648 174.274 26.2771L174.153 26.6402C174.719 26.6402 175.07 26.7325 175.209 26.9171C175.346 27.1017 175.364 27.3889 175.26 27.7807L174.458 30.8053C174.408 30.6594 174.321 30.5287 174.206 30.4258C174.01 30.2412 173.739 30.1489 173.393 30.1489C172.702 30.1489 172.062 30.3048 171.474 30.6155C170.883 30.9385 170.351 31.3596 169.901 31.8607C169.428 32.3685 169.027 32.9385 168.708 33.555C168.394 34.1549 168.145 34.7865 167.965 35.4391C167.801 36.0013 167.714 36.5829 167.705 37.1684C167.705 37.7212 167.792 38.1766 167.965 38.5335C168.138 38.8791 168.374 39.1386 168.673 39.3109C168.973 39.473 169.307 39.553 169.676 39.553C170.241 39.553 170.748 39.3868 171.198 39.0525C171.647 38.7068 172.067 38.1766 172.46 37.4617C172.624 37.1704 172.789 36.8432 172.953 36.4802L172.84 36.9089C172.735 37.2466 172.666 37.594 172.632 37.9458C172.61 38.2453 172.632 38.4996 172.702 38.7068C172.84 39.2709 173.266 39.554 173.981 39.554C174.246 39.554 174.516 39.5017 174.793 39.3981C175.07 39.2945 175.329 39.116 175.571 38.8617C175.825 38.6084 176.026 38.2463 176.176 37.7725L176.591 36.5109H176.263L175.986 37.2884C175.779 37.8771 175.583 38.274 175.399 38.4812C175.225 38.6781 175.047 38.7755 174.862 38.7755C174.666 38.7755 174.551 38.6894 174.516 38.5161ZM173.594 34.0648C173.464 34.4863 173.323 34.8873 173.169 35.2658C172.881 36.0043 172.575 36.6381 172.252 37.1684C171.941 37.6863 171.635 38.0894 171.336 38.3786C171.036 38.6545 170.771 38.793 170.541 38.793C170.322 38.793 170.161 38.6894 170.057 38.4822C169.965 38.2627 169.919 37.9345 169.919 37.4966C169.919 36.874 169.987 36.2402 170.126 35.595C170.264 34.9386 170.454 34.3099 170.696 33.7109C170.919 33.1488 171.197 32.6101 171.526 32.1027C171.838 31.6186 172.166 31.2381 172.511 30.9612C172.868 30.6843 173.22 30.5468 173.566 30.5468C173.796 30.5468 173.981 30.6278 174.12 30.7889C174.216 30.8935 174.29 31.0453 174.341 31.2463L173.594 34.0648Z" fill="#303030"></path><path d="M163.013 39.3105H160.887L162.961 31.8603C163.065 31.5146 163.099 31.2726 163.065 31.1341C163.03 30.9956 162.927 30.9269 162.753 30.9269C162.535 30.9269 162.333 31.0367 162.148 31.2551C161.964 31.4736 161.774 31.8603 161.578 32.4141L161.284 33.2254H160.955L161.405 31.929C161.567 31.4674 161.768 31.1115 162.01 30.8572C162.252 30.5926 162.517 30.408 162.806 30.3044C163.094 30.2008 163.387 30.1485 163.687 30.1485C164.056 30.1485 164.327 30.2233 164.499 30.3741C164.684 30.5238 164.8 30.7197 164.846 30.9618C164.904 31.2227 164.915 31.4918 164.88 31.7567C164.857 32.0336 164.811 32.3044 164.741 32.569L164.463 33.6531L164.534 33.4685C164.857 32.65 165.168 31.9987 165.467 31.5146C165.779 31.0192 166.107 30.6674 166.453 30.4603C166.792 30.2544 167.181 30.1465 167.577 30.1485C167.991 30.1485 168.308 30.2695 168.528 30.5115C168.759 30.7536 168.873 31.0531 168.873 31.411C168.873 31.6982 168.804 31.97 168.666 32.2233C168.532 32.4611 168.342 32.6627 168.112 32.811C167.894 32.9495 167.641 33.0182 167.352 33.0182C167.064 33.0182 166.833 32.9433 166.66 32.7936C166.499 32.6438 166.418 32.4244 166.418 32.1372C166.418 31.8828 166.476 31.6531 166.591 31.4449C166.702 31.2422 166.856 31.0656 167.041 30.9269C167.225 30.7772 167.427 30.6736 167.646 30.6151C167.622 30.5914 167.592 30.5738 167.56 30.5638C167.52 30.5516 167.48 30.5458 167.439 30.5464C167.185 30.5464 166.926 30.6387 166.66 30.8233C166.395 30.9956 166.119 31.2787 165.83 31.6705C165.542 32.0623 165.249 32.5803 164.949 33.2254C164.611 33.9883 164.311 34.7673 164.05 35.5597C163.92 35.9433 163.788 36.3556 163.657 36.7977L163.013 39.3105Z" fill="#303030"></path><path fill-rule="evenodd" clip-rule="evenodd" d="M156.553 36.6402L156.481 36.9089C156.371 37.2992 156.296 37.6983 156.256 38.1017C156.221 38.4709 156.279 38.7817 156.428 39.035C156.659 39.3807 157.051 39.554 157.604 39.554C157.869 39.554 158.134 39.5017 158.4 39.3981C158.675 39.2945 158.935 39.1161 159.177 38.8617C159.419 38.5971 159.621 38.2278 159.782 37.7561L160.215 36.4945H159.886L159.626 37.2719C159.419 37.8709 159.218 38.2689 159.022 38.4648C158.826 38.6596 158.635 38.7581 158.451 38.7581C158.301 38.7581 158.204 38.7119 158.158 38.6196C158.121 38.5022 158.11 38.3787 158.123 38.2566C158.145 38.11 158.18 37.9656 158.226 37.8248L160.457 30.1489C160.11 30.2318 159.757 30.2898 159.402 30.3222C159.045 30.3571 158.659 30.3796 158.244 30.3909L157.993 31.3161C157.983 31.0812 157.915 30.8525 157.794 30.6504C157.704 30.4929 157.573 30.3629 157.414 30.2745C157.256 30.1861 157.076 30.1427 156.895 30.1489C156.388 30.1489 155.882 30.3048 155.374 30.6155C154.835 30.9546 154.351 31.3745 153.939 31.8607C153.474 32.3908 153.068 32.9703 152.729 33.5889C152.389 34.2092 152.116 34.8642 151.916 35.5427C151.728 36.1532 151.629 36.7879 151.623 37.4268C151.623 38.073 151.773 38.5909 152.072 38.9827C152.372 39.3632 152.832 39.553 153.455 39.553C153.893 39.553 154.313 39.4268 154.718 39.1735C155.132 38.9191 155.524 38.4986 155.893 37.9119C156.122 37.5581 156.341 37.1345 156.553 36.6402ZM155.063 38.395C154.798 38.6371 154.562 38.7581 154.354 38.7581C154.181 38.7581 154.049 38.6719 153.956 38.4986C153.875 38.314 153.835 38.0094 153.835 37.5827C153.835 36.9714 153.904 36.3437 154.043 35.6986C154.181 35.0525 154.366 34.4309 154.597 33.8319C154.839 33.2319 155.103 32.6966 155.391 32.2237C155.68 31.7519 155.968 31.3766 156.256 31.0996C156.555 30.8227 156.838 30.6853 157.103 30.6853C157.379 30.6853 157.575 30.8237 157.691 31.0996C157.806 31.3499 157.835 31.6853 157.78 32.1048L157.269 33.994L157.328 33.6935C157.143 34.4309 156.924 35.1109 156.67 35.7335C156.45 36.2901 156.184 36.8276 155.875 37.3407C155.599 37.7899 155.328 38.1417 155.063 38.395ZM149.299 37.8422C149.218 38.1191 149.195 38.3437 149.23 38.5161C149.264 38.6894 149.38 38.7755 149.576 38.7755C149.761 38.7755 149.939 38.6781 150.111 38.4822C150.296 38.274 150.492 37.8771 150.699 37.2884L150.976 36.5109H151.304L150.89 37.7725C150.74 38.2453 150.538 38.6084 150.285 38.8617C150.069 39.0973 149.803 39.2807 149.506 39.3981C149.247 39.4987 148.972 39.5516 148.694 39.554C147.98 39.554 147.553 39.2709 147.415 38.7068C147.342 38.4602 147.319 38.2015 147.346 37.9458C147.369 37.6463 147.438 37.2996 147.553 36.9089L147.667 36.4802C147.502 36.8432 147.337 37.1704 147.173 37.4617C146.781 38.1766 146.361 38.7068 145.911 39.0514C145.473 39.3823 144.938 39.559 144.389 39.554C144.021 39.554 143.687 39.4719 143.387 39.3119C143.078 39.1293 142.832 38.8581 142.679 38.5335C142.505 38.1766 142.419 37.7212 142.419 37.1684C142.419 36.6381 142.505 36.0607 142.679 35.4391C142.851 34.8053 143.099 34.1776 143.421 33.555C143.74 32.9387 144.141 32.3687 144.614 31.8607C145.087 31.3417 145.611 30.9273 146.187 30.6155C146.778 30.3036 147.438 30.1432 148.106 30.1489C148.452 30.1489 148.723 30.2412 148.919 30.4258C149.031 30.5253 149.117 30.6514 149.172 30.8053L149.973 27.7807C150.078 27.3889 150.06 27.1007 149.922 26.9161C149.783 26.7314 149.431 26.6391 148.867 26.6391L148.988 26.2771C149.667 26.2732 150.344 26.2094 151.011 26.0863C151.584 25.9641 152.145 25.7908 152.688 25.5684L149.299 37.8422ZM147.882 35.2658C148.035 34.8863 148.178 34.4863 148.307 34.0648L149.055 31.2463C149.019 31.078 148.943 30.9211 148.832 30.7889C148.764 30.7094 148.679 30.6464 148.584 30.6044C148.488 30.5625 148.384 30.5428 148.28 30.5468C147.934 30.5468 147.582 30.6853 147.225 30.9612C146.879 31.2381 146.55 31.6186 146.24 32.1027C145.91 32.6096 145.632 33.1479 145.41 33.7099C145.164 34.3201 144.973 34.951 144.84 35.595C144.703 36.2197 144.633 36.8571 144.631 37.4966C144.631 37.9345 144.678 38.2627 144.77 38.4812C144.873 38.6894 145.035 38.793 145.254 38.793C145.485 38.793 145.749 38.6545 146.049 38.3776C146.349 38.0904 146.654 37.6863 146.966 37.1673C147.325 36.5609 147.631 35.9247 147.882 35.2658Z" fill="#303030"></path><path d="M132.899 39.3105H135.025L135.225 38.529L135.215 38.5854C135.434 37.7782 135.682 37.0007 135.959 36.251C136.228 35.5355 136.527 34.8319 136.857 34.1423C137.169 33.4961 137.48 32.932 137.791 32.4479C138.102 31.9638 138.402 31.5895 138.69 31.3238C138.978 31.0469 139.243 30.9095 139.485 30.9095C139.681 30.9095 139.802 30.9782 139.848 31.1166C139.896 31.2737 139.902 31.4406 139.865 31.6007C139.831 31.7881 139.784 31.9731 139.727 32.1546L138.154 36.9084C137.992 37.3925 137.9 37.8069 137.877 38.1525C137.854 38.4982 137.917 38.7813 138.067 38.9997C138.183 39.1731 138.344 39.3054 138.551 39.3977C138.771 39.5002 139.03 39.5536 139.33 39.5536C139.606 39.5536 139.883 39.5013 140.16 39.3977C140.448 39.3054 140.712 39.132 140.954 38.8787C141.208 38.6254 141.416 38.2561 141.577 37.772L142.009 36.5105H141.681L141.404 37.2879C141.185 37.8879 140.978 38.2848 140.782 38.4807C140.597 38.6777 140.419 38.7751 140.246 38.7751C140.061 38.7751 139.946 38.7002 139.9 38.5495C139.854 38.3895 139.883 38.1525 139.986 37.8418L141.681 32.7587C141.83 32.3095 141.905 31.8889 141.905 31.4972C141.916 31.0941 141.808 30.771 141.577 30.529C141.358 30.2756 140.966 30.1495 140.402 30.1495C139.975 30.1495 139.566 30.2418 139.174 30.4254C138.782 30.61 138.402 30.932 138.033 31.3936C137.664 31.8428 137.284 32.4541 136.892 33.2254C136.632 33.7456 136.393 34.2763 136.177 34.8161L136.753 32.5689C136.823 32.292 136.874 32.0151 136.909 31.7392C136.944 31.452 136.932 31.1915 136.874 30.9607C136.819 30.7225 136.678 30.5131 136.478 30.3731C136.282 30.2233 135.993 30.1484 135.613 30.1484C135.151 30.1484 134.731 30.2756 134.35 30.529C133.971 30.7823 133.659 31.249 133.417 31.929L132.968 33.2254H133.296L133.59 32.4131C133.798 31.849 133.987 31.4623 134.161 31.2551C134.345 31.0366 134.546 30.9269 134.766 30.9269C134.927 30.9269 135.025 30.9731 135.06 31.0654C135.105 31.1577 135.118 31.2725 135.094 31.411C135.068 31.5626 135.033 31.7126 134.99 31.8602L132.899 39.3105Z" fill="#303030"></path><path fill-rule="evenodd" clip-rule="evenodd" d="M128.493 36.9084L128.566 36.6397C128.381 37.0812 128.16 37.5065 127.905 37.9115C127.536 38.4982 127.144 38.9197 126.729 39.1731C126.326 39.4264 125.905 39.5525 125.467 39.5525C124.845 39.5525 124.384 39.3628 124.085 38.9823C123.784 38.5905 123.634 38.0725 123.634 37.4264C123.634 36.8274 123.733 36.1997 123.929 35.5423C124.129 34.8638 124.401 34.2087 124.741 33.5884C125.08 32.9697 125.486 32.3901 125.951 31.8602C126.363 31.3741 126.847 30.9542 127.386 30.6151C127.893 30.3043 128.401 30.1484 128.907 30.1484C129.299 30.1484 129.598 30.3156 129.807 30.651C129.917 30.8223 129.984 31.0438 130.006 31.3156L130.256 30.3905C130.67 30.3792 131.057 30.3566 131.414 30.3218C131.783 30.2869 132.134 30.2295 132.468 30.1484L130.238 37.8254C130.192 37.966 130.157 38.1105 130.135 38.2572C130.122 38.3793 130.134 38.5028 130.17 38.6202C130.216 38.7125 130.313 38.7587 130.463 38.7587C130.648 38.7587 130.837 38.6613 131.033 38.4654C131.229 38.2695 131.431 37.8705 131.639 37.2725L131.898 36.4941H132.226L131.794 37.7556C131.633 38.2284 131.431 38.5966 131.189 38.8633C130.974 39.0983 130.708 39.2813 130.412 39.3987C130.159 39.5002 129.889 39.5531 129.616 39.5546C129.063 39.5546 128.671 39.3813 128.441 39.0356C128.291 38.7823 128.233 38.4715 128.268 38.1023C128.309 37.6989 128.384 37.2988 128.493 36.9084ZM126.366 38.7577C126.574 38.7577 126.81 38.6366 127.075 38.3946C127.34 38.1413 127.611 37.7895 127.888 37.3402C128.164 36.891 128.429 36.3556 128.683 35.7331C128.936 35.1105 129.155 34.4305 129.34 33.692L129.282 33.9936L129.792 32.1054C129.847 31.6848 129.817 31.3495 129.703 31.1002C129.587 30.8233 129.391 30.6848 129.114 30.6848C128.85 30.6848 128.568 30.8233 128.268 31.0992C127.98 31.3761 127.692 31.7505 127.404 32.2233C127.115 32.6951 126.85 33.2315 126.608 33.8305C126.376 34.4375 126.191 35.0616 126.055 35.6972C125.919 36.3164 125.85 36.9484 125.848 37.5823C125.848 38.009 125.888 38.3146 125.969 38.4982C126.061 38.6715 126.193 38.7577 126.366 38.7577Z" fill="#303030"></path><path d="M124.833 30.7367L124.886 30.3911H122.826L123.641 27.5562C123.3 27.6401 122.953 27.6981 122.604 27.7296C122.247 27.7634 121.86 27.787 121.446 27.7983L120.702 30.3911H119.129L119.043 30.7367H120.604L118.834 36.9091C118.685 37.4157 118.633 37.8711 118.679 38.2742C118.737 38.666 118.898 38.9778 119.164 39.2075C119.439 39.4383 119.837 39.5542 120.356 39.5542C120.944 39.5542 121.451 39.3983 121.877 39.0865C122.304 38.7757 122.638 38.2629 122.881 37.548L123.226 36.5111H122.897L122.638 37.2198C122.43 37.7962 122.201 38.1993 121.946 38.4301C121.704 38.6608 121.462 38.7757 121.22 38.7757C121.125 38.7789 121.03 38.7602 120.944 38.7211C120.857 38.6819 120.78 38.6234 120.719 38.5501C120.604 38.4014 120.592 38.1655 120.685 37.8424L122.727 30.7367H124.833ZM119.108 26.9511C118.993 27.2506 118.837 27.6896 118.642 28.265C118.457 28.8291 118.273 29.5675 118.089 30.4773H117.743C117.777 30.3162 117.801 30.1491 117.812 29.9767C117.834 29.8221 117.846 29.6662 117.847 29.5101C117.847 29.0598 117.754 28.6691 117.57 28.3347C117.392 27.984 117.108 27.6991 116.757 27.5214C116.401 27.3142 115.939 27.2106 115.375 27.2106C114.764 27.2106 114.245 27.3716 113.819 27.6947C113.392 28.0055 113.179 28.507 113.179 29.1983C113.179 29.625 113.276 30.0291 113.472 30.4085C113.681 30.7778 113.94 31.1408 114.251 31.4978C114.574 31.8434 114.913 32.1952 115.27 32.5521C115.628 32.8978 115.963 33.2557 116.273 33.6239C116.584 33.9932 116.838 34.385 117.034 34.7993C117.242 35.2034 117.345 35.6465 117.345 36.1306C117.345 36.7419 117.195 37.266 116.896 37.7039C116.604 38.1341 116.22 38.4942 115.772 38.7583C115.302 39.0268 114.795 39.2249 114.268 39.346C113.761 39.4815 113.238 39.5515 112.712 39.5542C112.193 39.5542 111.762 39.5132 111.416 39.4332C111.12 39.3775 110.835 39.2783 110.569 39.1388C110.342 39.0147 110.117 38.8882 109.894 38.7593C109.792 38.6739 109.675 38.6091 109.548 38.5685C109.468 38.5281 109.38 38.5043 109.29 38.4988C109.139 38.4988 109.013 38.5737 108.909 38.7244C108.773 38.9496 108.658 39.1864 108.564 39.4321H108.217C108.502 38.7291 108.74 38.0075 108.927 37.2721C109.064 36.7419 109.22 36.0793 109.393 35.2834H109.739C109.691 35.5124 109.65 35.7429 109.618 35.9747C109.583 36.2055 109.572 36.4362 109.583 36.667C109.618 37.4732 109.865 38.0957 110.327 38.5337C110.799 38.9716 111.491 39.1901 112.401 39.1901C113.173 39.1901 113.755 39.0291 114.147 38.707C114.539 38.3726 114.735 37.8885 114.735 37.2547C114.735 36.7706 114.643 36.3316 114.458 35.9408C114.284 35.5344 114.051 35.1556 113.767 34.8167C113.474 34.4661 113.168 34.126 112.851 33.7973C112.533 33.4685 112.227 33.1281 111.934 32.7767C111.651 32.4277 111.413 32.0445 111.225 31.6362C111.036 31.1997 110.942 30.7282 110.949 30.2526C110.949 29.6773 111.07 29.1757 111.312 28.7491C111.556 28.3329 111.886 27.9734 112.279 27.6947C112.683 27.4065 113.134 27.19 113.611 27.0547C114.075 26.9081 114.559 26.8324 115.046 26.8301C115.668 26.8301 116.181 26.9049 116.584 27.0557C116.988 27.2044 117.334 27.3839 117.622 27.5911L117.95 27.7983C118.054 27.8444 118.135 27.867 118.192 27.867C118.353 27.867 118.544 27.5624 118.763 26.9511H119.108Z" fill="#303030"></path><path fill-rule="evenodd" clip-rule="evenodd" d="M102.421 38.5161C102.386 38.3437 102.41 38.1191 102.491 37.8422L105.878 25.5684C105.336 25.7908 104.775 25.9641 104.202 26.0863C103.614 26.2022 102.94 26.2648 102.179 26.2771L102.058 26.6402C102.622 26.6402 102.975 26.7325 103.112 26.9171C103.251 27.1017 103.268 27.3889 103.165 27.7807L102.363 30.8053C102.312 30.6593 102.225 30.5287 102.11 30.4258C101.914 30.2412 101.644 30.1489 101.298 30.1489C100.606 30.1489 99.9667 30.3048 99.379 30.6155C98.7878 30.9385 98.2558 31.3595 97.8056 31.8607C97.3327 32.3685 96.9314 32.9385 96.6128 33.555C96.2989 34.1549 96.0496 34.7865 95.8692 35.4391C95.7051 36.0012 95.6178 36.5829 95.6097 37.1684C95.6097 37.7212 95.6969 38.1766 95.8692 38.5335C96.0426 38.8791 96.2785 39.1386 96.5779 39.3109C96.8774 39.473 97.2118 39.553 97.581 39.553C98.1451 39.553 98.6528 39.3868 99.1021 39.0525C99.5513 38.7068 99.9718 38.1766 100.364 37.4617C100.528 37.1704 100.693 36.8432 100.858 36.4802L100.745 36.9089C100.64 37.2464 100.57 37.5939 100.537 37.9458C100.509 38.2015 100.533 38.4602 100.606 38.7068C100.744 39.2709 101.17 39.554 101.886 39.554C102.15 39.554 102.421 39.5017 102.698 39.3981C102.975 39.2945 103.233 39.116 103.475 38.8617C103.73 38.6084 103.931 38.2463 104.081 37.7725L104.496 36.5109H104.168L103.891 37.2884C103.684 37.8771 103.488 38.274 103.303 38.4812C103.13 38.6781 102.951 38.7755 102.767 38.7755C102.572 38.7755 102.456 38.6894 102.421 38.5161ZM101.498 34.0648C101.369 34.4863 101.227 34.8873 101.072 35.2658C100.785 36.0043 100.479 36.6381 100.156 37.1684C99.8456 37.6863 99.54 38.0894 99.2405 38.3786C98.941 38.6545 98.6764 38.793 98.4446 38.793C98.2262 38.793 98.0651 38.6894 97.9615 38.4822C97.8692 38.2627 97.8231 37.9345 97.8231 37.4966C97.8231 36.874 97.8918 36.2402 98.0303 35.595C98.1687 34.9386 98.3585 34.3099 98.6005 33.7109C98.8235 33.1487 99.1018 32.61 99.4313 32.1027C99.7421 31.6186 100.07 31.2381 100.416 30.9612C100.773 30.6843 101.125 30.5468 101.47 30.5468C101.701 30.5468 101.886 30.6278 102.024 30.7889C102.121 30.8935 102.194 31.0453 102.246 31.2463L101.498 34.0648Z" fill="#303030"></path><path d="M88.216 39.3105H86.0898L88.1822 31.8602C88.2283 31.6992 88.2622 31.5495 88.2847 31.411C88.3104 31.2951 88.2986 31.1741 88.2509 31.0654C88.216 30.9731 88.1175 30.9269 87.9565 30.9269C87.738 30.9269 87.536 31.0366 87.3514 31.2551C87.1791 31.4623 86.9883 31.849 86.7811 32.4141L86.4878 33.2254H86.1596L86.6088 31.929C86.8509 31.249 87.1627 30.7823 87.5422 30.529C87.9216 30.2756 88.3422 30.1495 88.8037 30.1495C89.1842 30.1495 89.4724 30.2233 89.6683 30.3731C89.8692 30.5129 90.011 30.7223 90.0663 30.9607C90.1237 31.1915 90.135 31.451 90.1011 31.7392C90.0659 32.0187 90.0138 32.2957 89.9452 32.5689L89.3688 34.8172C89.6129 34.2131 89.8509 33.6838 90.0837 33.2254C90.4755 32.4541 90.855 31.8428 91.2242 31.3936C91.5934 30.932 91.9729 30.61 92.3647 30.4254C92.7575 30.2407 93.1657 30.1484 93.5924 30.1484C94.1565 30.1484 94.5493 30.2756 94.7678 30.529C94.9986 30.771 95.1083 31.0931 95.096 31.4972C95.096 31.8889 95.0222 32.3095 94.8714 32.7587L93.1781 37.8418C93.0734 38.1525 93.0447 38.3895 93.0909 38.5495C93.137 38.7002 93.2529 38.7751 93.4375 38.7751C93.6098 38.7751 93.7883 38.6777 93.9729 38.4818C94.1688 38.2848 94.376 37.8869 94.5955 37.2879L94.8724 36.5105H95.2006L94.7678 37.772C94.6068 38.2561 94.3986 38.6254 94.1463 38.8797C93.929 39.1169 93.6552 39.2951 93.3504 39.3977C93.0855 39.4993 92.8043 39.5521 92.5206 39.5536C92.2211 39.5536 91.9616 39.5013 91.7432 39.3977C91.535 39.3054 91.3739 39.172 91.2591 38.9997C91.1093 38.7813 91.0457 38.4982 91.0683 38.1525C91.0919 37.8069 91.1842 37.3925 91.3452 36.9084L92.9186 32.1546C92.976 31.97 93.0222 31.7854 93.057 31.6007C93.0933 31.4406 93.0873 31.2738 93.0396 31.1166C92.9934 30.9782 92.8724 30.9095 92.6765 30.9095C92.4345 30.9095 92.1688 31.0479 91.8816 31.3238C91.5934 31.5895 91.2929 31.9638 90.9822 32.4479C90.6372 32.9934 90.3255 33.5592 90.0488 34.1423C89.738 34.7884 89.4375 35.49 89.1493 36.251C88.8724 36.9997 88.6263 37.7782 88.4068 38.5854L88.417 38.529L88.216 39.3105Z" fill="#303030"></path><path fill-rule="evenodd" clip-rule="evenodd" d="M81.7564 36.6403L81.6846 36.909C81.5757 37.2995 81.5003 37.6985 81.459 38.1018C81.4241 38.471 81.4816 38.7818 81.6313 39.0351C81.8621 39.3808 82.2539 39.5541 82.8077 39.5541C83.1033 39.552 83.3953 39.4895 83.6659 39.3704C83.9364 39.2514 84.1798 39.0783 84.381 38.8618C84.6231 38.5972 84.8241 38.228 84.9862 37.7562L85.4169 36.4946H85.0887L84.8303 37.2721C84.6221 37.871 84.42 38.269 84.2251 38.4649C84.0292 38.6598 83.8385 38.7582 83.6549 38.7582C83.5041 38.7582 83.4067 38.7121 83.3605 38.6198C83.3245 38.5023 83.3126 38.3788 83.3257 38.2567C83.3492 38.1069 83.3831 37.9633 83.4303 37.8249L85.66 30.149C85.3132 30.2319 84.9608 30.2898 84.6057 30.3223C84.2477 30.3572 83.8621 30.3798 83.4467 30.391L83.1964 31.3162C83.1858 31.0813 83.1174 30.8527 82.9975 30.6505C82.9075 30.4931 82.7762 30.3633 82.6179 30.2749C82.4596 30.1865 82.2802 30.143 82.099 30.149C81.5913 30.149 81.0836 30.3049 80.5769 30.6157C80.0703 30.9274 79.5923 31.3418 79.1421 31.8608C78.6764 32.3907 78.2706 32.9702 77.9318 33.589C77.5918 34.2093 77.3195 34.8643 77.1195 35.5428C76.9309 36.1533 76.8321 36.788 76.8262 37.4269C76.8262 38.0731 76.9759 38.591 77.2754 38.9828C77.5749 39.3633 78.0364 39.5531 78.658 39.5531C79.0959 39.5531 79.5175 39.4269 79.9195 39.1736C80.3349 38.9192 80.7277 38.4987 81.0959 37.9121C81.3246 37.5582 81.5441 37.1346 81.7564 36.6403ZM80.2662 38.3951C80.0016 38.6372 79.7646 38.7582 79.5575 38.7582C79.3841 38.7582 79.2518 38.6721 79.1595 38.4987C79.0795 38.3141 79.0385 38.0095 79.0385 37.5828C79.0385 36.9715 79.1082 36.3439 79.2467 35.6987C79.3841 35.0526 79.5687 34.431 79.7995 33.8321C80.0416 33.2321 80.3062 32.6967 80.5944 32.2239C80.8826 31.7521 81.1708 31.3767 81.459 31.0998C81.7585 30.8228 82.0405 30.6854 82.3062 30.6854C82.5831 30.6854 82.778 30.8239 82.8939 31.0998C83.0087 31.35 83.0375 31.6854 82.9831 32.1049L82.4723 33.9941L82.5308 33.6936C82.3462 34.431 82.1277 35.111 81.8744 35.7336C81.62 36.3551 81.3554 36.8915 81.0785 37.3408C80.8016 37.79 80.5308 38.1418 80.2662 38.3951Z" fill="#303030"></path><path d="M72.2026 39.3105H70.0764L72.1503 31.8603C72.2539 31.5146 72.2887 31.2726 72.2539 31.1341C72.22 30.9956 72.1164 30.9269 71.9431 30.9269C71.7246 30.9269 71.5226 31.0367 71.338 31.2551C71.1533 31.4736 70.9636 31.8603 70.7677 32.4141L70.4733 33.2254H70.1451L70.5944 31.929C70.7564 31.4674 70.9574 31.1115 71.1995 30.8572C71.4415 30.5926 71.7072 30.408 71.9954 30.3044C72.2826 30.2008 72.5769 30.1485 72.8774 30.1485C73.2456 30.1485 73.5164 30.2233 73.6887 30.3741C73.8721 30.5212 73.9953 30.7302 74.0354 30.9618C74.0928 31.2038 74.1041 31.4685 74.0692 31.7567C74.0467 32.0336 74.0005 32.3044 73.9308 32.569L73.6539 33.6531L73.6815 33.5782L73.7236 33.4685C74.0467 32.65 74.3574 31.9987 74.6569 31.5146C74.9687 31.0192 75.2969 30.6674 75.6426 30.4603C75.9812 30.2544 76.3704 30.1465 76.7667 30.1485C77.181 30.1485 77.498 30.2695 77.7174 30.5115C77.9472 30.7536 78.0631 31.0531 78.0631 31.411C78.0631 31.6982 77.9933 31.97 77.8549 32.2233C77.7207 32.461 77.5311 32.6626 77.3021 32.811C77.0736 32.9519 76.8094 33.0238 76.541 33.0182C76.2539 33.0182 76.0231 32.9433 75.8497 32.7936C75.6887 32.6438 75.6077 32.4244 75.6077 32.1372C75.6077 31.8828 75.6651 31.6531 75.781 31.4449C75.8959 31.2377 76.0456 31.0654 76.2303 30.9269C76.4149 30.7772 76.6159 30.6736 76.8354 30.6151C76.8111 30.5915 76.7816 30.574 76.7492 30.5638C76.7263 30.5561 76.7026 30.5509 76.6785 30.5485C76.6614 30.5468 76.6443 30.5462 76.6272 30.5464C76.3749 30.5464 76.1144 30.6387 75.8497 30.8233C75.5851 30.9956 75.3082 31.2787 75.02 31.6705C74.7328 32.0623 74.4385 32.5803 74.138 33.2254C73.8 33.9882 73.5002 34.7672 73.2395 35.5597C73.1092 35.9423 72.978 36.3556 72.8467 36.7977L72.2026 39.3105Z" fill="#303030"></path><path fill-rule="evenodd" clip-rule="evenodd" d="M68.9688 27.7123C68.3924 27.2969 67.4703 27.0897 66.2026 27.0897C65.8108 27.0897 65.4191 27.0959 65.0262 27.1071C64.6467 27.1184 64.2088 27.1246 63.7134 27.1246H62.8488C62.537 27.1123 62.2437 27.1071 61.9667 27.1071C61.7362 27.097 61.5058 27.0854 61.2755 27.0723L61.1893 27.4179C61.6385 27.4179 61.9442 27.4753 62.1052 27.5912C62.2785 27.6938 62.3585 27.8559 62.3473 28.0753C62.324 28.3553 62.2777 28.6328 62.2088 28.9051L59.9267 37.4794C59.8242 37.8938 59.7083 38.2056 59.5811 38.4128C59.4663 38.6109 59.2815 38.7591 59.0632 38.8282C58.8437 38.8969 58.538 38.943 58.1462 38.9656L58.0775 39.3112C58.2724 39.301 58.5093 39.2948 58.7852 39.2948C59.0621 39.2825 59.3565 39.2774 59.6673 39.2774C60.5373 39.2509 61.4079 39.2568 62.2775 39.2948C62.7503 39.3051 63.1832 39.3123 63.575 39.3123C64.3237 39.3123 65.0324 39.2364 65.7011 39.0866C66.3175 38.9468 66.907 38.7078 67.4467 38.3789C67.9296 38.0913 68.3382 37.6943 68.6396 37.22C68.9391 36.7584 69.0888 36.2179 69.0888 35.5953C69.0888 34.8918 68.8016 34.2866 68.2252 33.78C67.6611 33.2723 66.7667 32.9728 65.5452 32.8805C66.3074 32.771 67.0478 32.5437 67.7401 32.2066C68.3862 31.8723 68.8929 31.463 69.2621 30.9789C69.6338 30.5193 69.8352 29.9454 69.8324 29.3543C69.8324 28.663 69.5462 28.1153 68.9688 27.7123ZM63.4508 33.1061L62.295 37.4794C62.2262 37.7666 62.1801 38.021 62.1575 38.2394C62.1452 38.4589 62.2026 38.6261 62.3298 38.742C62.457 38.8569 62.6929 38.9143 63.0385 38.9143C63.857 38.9143 64.5257 38.7584 65.0437 38.4476C65.5512 38.1492 65.9555 37.703 66.2026 37.1687C66.456 36.6148 66.5821 35.9923 66.5821 35.302C66.5821 34.8743 66.5073 34.5 66.3575 34.1779C66.2257 33.8507 65.9886 33.5768 65.6837 33.3994C65.3729 33.2035 64.9575 33.1061 64.4385 33.1061H63.4508ZM63.5288 32.8118H64.3185C64.975 32.8118 65.5339 32.6446 65.9944 32.3102C66.4673 31.9646 66.8252 31.5153 67.0673 30.9625C67.3193 30.4148 67.4488 29.8188 67.4467 29.2159C67.4467 28.6394 67.3319 28.1964 67.1011 27.8846C66.8826 27.5738 66.496 27.4179 65.9421 27.4179C65.5401 27.4179 65.2519 27.4989 65.0785 27.66C64.9062 27.8097 64.7565 28.1379 64.6293 28.6446L63.5288 32.8118Z" fill="#303030"></path></g><defs><clipPath id="clip0_927_346"><rect width="178.462" height="40" fill="white" transform="translate(0.289795)"></rect></clipPath></defs></svg> 