<?xml version="1.0" encoding="UTF-8"?> <svg xmlns="http://www.w3.org/2000/svg" width="169" height="41" viewBox="0 0 169 41" fill="none"><path d="M50.5669 28.3914H62.5189V24.7914H54.8149V11.2314H50.5669V28.3914Z" fill="#303030"></path><path d="M69.6003 25.9916C67.8963 25.9916 67.0083 24.5036 67.0083 22.2716C67.0083 20.0396 67.8963 18.5276 69.6003 18.5276C71.3043 18.5276 72.2163 20.0396 72.2163 22.2716C72.2163 24.5036 71.3043 25.9916 69.6003 25.9916ZM69.6243 28.7756C73.5843 28.7756 76.1763 25.9676 76.1763 22.2716C76.1763 18.5756 73.5843 15.7676 69.6243 15.7676C65.6883 15.7676 63.0483 18.5756 63.0483 22.2716C63.0483 25.9676 65.6883 28.7756 69.6243 28.7756Z" fill="#303030"></path><path d="M83.0306 32.6392C84.8546 32.6392 86.4626 32.2312 87.5426 31.2712C88.5266 30.3832 89.1746 29.0392 89.1746 27.1912V16.1032H85.4306V17.4232H85.3826C84.6626 16.3912 83.5586 15.7432 81.9266 15.7432C78.8786 15.7432 76.7666 18.2872 76.7666 21.8872C76.7666 25.6552 79.3346 27.7192 82.0946 27.7192C83.5826 27.7192 84.5186 27.1192 85.2386 26.3032H85.3346V27.5272C85.3346 29.0152 84.6386 29.8792 82.9826 29.8792C81.6866 29.8792 81.0386 29.3272 80.8226 28.6792H77.0306C77.4146 31.2472 79.6466 32.6392 83.0306 32.6392ZM83.0066 24.8152C81.5426 24.8152 80.5826 23.6152 80.5826 21.7672C80.5826 19.8952 81.5426 18.6952 83.0066 18.6952C84.6386 18.6952 85.5026 20.0872 85.5026 21.7432C85.5026 23.4712 84.7106 24.8152 83.0066 24.8152Z" fill="#303030"></path><path d="M96.873 25.9916C95.169 25.9916 94.281 24.5036 94.281 22.2716C94.281 20.0396 95.169 18.5276 96.873 18.5276C98.577 18.5276 99.489 20.0396 99.489 22.2716C99.489 24.5036 98.577 25.9916 96.873 25.9916ZM96.897 28.7756C100.857 28.7756 103.449 25.9676 103.449 22.2716C103.449 18.5756 100.857 15.7676 96.897 15.7676C92.9611 15.7676 90.321 18.5756 90.321 22.2716C90.321 25.9676 92.9611 28.7756 96.897 28.7756Z" fill="#303030"></path><path d="M104.591 28.3914H108.503V16.1034H104.591V28.3914ZM104.591 14.3994H108.503V11.2314H104.591V14.3994Z" fill="#303030"></path><path d="M110.201 32.4472H114.113V27.1192H114.161C114.929 28.1512 116.057 28.7752 117.641 28.7752C120.857 28.7752 122.993 26.2312 122.993 22.2472C122.993 18.5512 121.001 15.7432 117.737 15.7432C116.057 15.7432 114.857 16.4872 114.017 17.5912H113.945V16.1032H110.201V32.4472ZM116.633 25.7512C114.953 25.7512 113.993 24.3832 113.993 22.3912C113.993 20.3992 114.857 18.8872 116.561 18.8872C118.241 18.8872 119.033 20.2792 119.033 22.3912C119.033 24.4792 118.121 25.7512 116.633 25.7512Z" fill="#303030"></path><path d="M129.362 28.7752C132.578 28.7752 134.954 27.3832 134.954 24.6952C134.954 21.5512 132.41 20.9992 130.25 20.6392C128.69 20.3512 127.298 20.2312 127.298 19.3672C127.298 18.5992 128.042 18.2392 129.002 18.2392C130.082 18.2392 130.826 18.5752 130.97 19.6792H134.57C134.378 17.2552 132.506 15.7432 129.026 15.7432C126.122 15.7432 123.722 17.0872 123.722 19.6792C123.722 22.5592 126.002 23.1352 128.138 23.4952C129.77 23.7832 131.258 23.9032 131.258 25.0072C131.258 25.7992 130.514 26.2312 129.338 26.2312C128.042 26.2312 127.226 25.6312 127.082 24.4072H123.386C123.506 27.1192 125.762 28.7752 129.362 28.7752Z" fill="#303030"></path><path d="M140.268 28.7515C141.972 28.7515 143.052 28.0795 143.94 26.8795H144.012V28.3915H147.756V16.1035H143.844V22.9675C143.844 24.4315 143.028 25.4395 141.684 25.4395C140.436 25.4395 139.836 24.6955 139.836 23.3515V16.1035H135.948V24.1675C135.948 26.9035 137.436 28.7515 140.268 28.7515Z" fill="#303030"></path><path d="M149.457 28.3912H153.369V21.5032C153.369 20.0392 154.089 19.0072 155.313 19.0072C156.489 19.0072 157.041 19.7752 157.041 21.0952V28.3912H160.953V21.5032C160.953 20.0392 161.649 19.0072 162.897 19.0072C164.073 19.0072 164.625 19.7752 164.625 21.0952V28.3912H168.537V20.3992C168.537 17.6392 167.145 15.7432 164.361 15.7432C162.777 15.7432 161.457 16.4152 160.497 17.9032H160.449C159.825 16.5832 158.601 15.7432 156.993 15.7432C155.217 15.7432 154.041 16.5832 153.273 17.8552H153.201V16.1032H149.457V28.3912Z" fill="#303030"></path><path fill-rule="evenodd" clip-rule="evenodd" d="M20.3914 0C31.6532 0 40.7827 9.12947 40.7827 20.3913C40.7827 31.6532 31.6532 40.7827 20.3914 40.7827C9.12949 40.7827 0 31.6532 0 20.3913C0 9.12947 9.12949 0 20.3914 0ZM40 20.3913C40 9.56177 31.2209 0.782621 20.3914 0.782621C19.5178 0.782621 18.6577 0.839741 17.8143 0.950451C18.3592 0.902811 18.9106 0.878491 19.4678 0.878491C29.816 0.878491 38.2049 9.26737 38.2049 19.6156C38.2049 29.9637 29.816 38.3526 19.4678 38.3526C9.67081 38.3526 1.62999 30.8337 0.801163 21.2516C1.25141 31.682 9.84995 40 20.3914 40C31.2209 40 40 31.2209 40 20.3913ZM37.4222 19.6156C37.4222 9.69957 29.3838 1.66112 19.4678 1.66112C18.6627 1.66112 17.8699 1.71412 17.0928 1.81681C17.5713 1.77655 18.0554 1.75601 18.5443 1.75601C27.9789 1.75601 35.6271 9.40427 35.6271 18.8388C35.6271 28.2734 27.9789 35.9216 18.5443 35.9216C9.62363 35.9216 2.30002 29.0839 1.52865 20.3637C1.92084 29.9327 9.80245 37.57 19.4678 37.57C29.3838 37.57 37.4222 29.5315 37.4222 19.6156ZM18.5443 2.53864C27.5466 2.53864 34.8445 9.83647 34.8445 18.8388C34.8445 27.8411 27.5466 35.1389 18.5443 35.1389C9.75055 35.1389 2.58317 28.1753 2.25582 19.4616C2.96257 27.3266 9.57186 33.4905 17.6209 33.4905C26.1412 33.4905 33.0484 26.5834 33.0484 18.063C33.0484 9.54257 26.1412 2.63548 17.6209 2.63548C17.1801 2.63548 16.7436 2.65397 16.3122 2.6902C17.042 2.59027 17.7871 2.53864 18.5443 2.53864ZM32.2657 18.063C32.2657 9.97487 25.709 3.41811 17.6209 3.41811C16.9375 3.41811 16.265 3.46491 15.6066 3.55549C15.9661 3.52735 16.3295 3.51302 16.6963 3.51302C24.3031 3.51302 30.4696 9.67947 30.4696 17.2863C30.4696 24.893 24.3031 31.0595 16.6963 31.0595C9.53662 31.0595 3.65291 25.5966 2.986 18.6117C3.27453 26.4456 9.71635 32.7079 17.6209 32.7079C25.709 32.7079 32.2657 26.1512 32.2657 18.063ZM16.6963 4.29564C23.8708 4.29564 29.6869 10.1118 29.6869 17.2863C29.6869 24.4608 23.8708 30.2769 16.6963 30.2769C9.66309 30.2769 3.93535 24.6877 3.71241 17.7087C4.31454 23.8389 9.48433 28.6285 15.7728 28.6285C22.466 28.6285 27.8918 23.2026 27.8918 16.5095C27.8918 9.81637 22.466 4.39053 15.7728 4.39053C15.4659 4.39053 15.1616 4.40194 14.8604 4.42436C15.4602 4.33952 16.0731 4.29564 16.6963 4.29564ZM27.1092 16.5095C27.1092 10.2486 22.0337 5.17316 15.7728 5.17316C15.2013 5.17316 14.6397 5.21545 14.0909 5.29707C14.3414 5.27913 14.5943 5.27 14.8494 5.27C20.6283 5.27 25.3131 9.95477 25.3131 15.7337C25.3131 21.5127 20.6283 26.1974 14.8494 26.1974C9.43412 26.1974 4.97972 22.0839 4.44039 16.8111C4.60028 22.9326 9.61276 27.8459 15.7728 27.8459C22.0337 27.8459 27.1092 22.7704 27.1092 16.5095ZM14.8494 6.05263C20.1961 6.05263 24.5304 10.387 24.5304 15.7337C24.5304 21.0805 20.1961 25.4148 14.8494 25.4148C9.57063 25.4148 5.27871 21.1901 5.17032 15.9374C5.65795 20.3413 9.3919 23.7664 13.9259 23.7664C18.7912 23.7664 22.7353 19.8223 22.7353 14.957C22.7353 10.0917 18.7912 6.14752 13.9259 6.14752C13.7398 6.14752 13.5551 6.15329 13.3719 6.16466C13.8536 6.09089 14.347 6.05263 14.8494 6.05263ZM21.9527 14.957C21.9527 10.5239 18.359 6.93015 13.9259 6.93015C13.4807 6.93015 13.044 6.96639 12.6185 7.03608C12.7453 7.0294 12.8729 7.02602 13.0014 7.02602C16.953 7.02602 20.1565 10.2295 20.1565 14.1812C20.1565 18.1329 16.953 21.3364 13.0014 21.3364C9.34738 21.3364 6.33315 18.5974 5.89967 15.0606C5.95517 19.446 9.52735 22.9838 13.9259 22.9838C18.359 22.9838 21.9527 19.3901 21.9527 14.957ZM13.0014 7.80864C16.5208 7.80864 19.3739 10.6617 19.3739 14.1812C19.3739 17.7007 16.5208 20.5537 13.0014 20.5537C9.48186 20.5537 6.62878 17.7007 6.62878 14.1812C6.62878 14.1728 6.6288 14.1643 6.62883 14.1559C6.99525 16.8379 9.29521 18.9044 12.0779 18.9044C15.1154 18.9044 17.5778 16.442 17.5778 13.4045C17.5778 10.3669 15.1154 7.90453 12.0779 7.90453C12.0092 7.90453 11.9408 7.90578 11.8727 7.90828C12.239 7.84281 12.6162 7.80864 13.0014 7.80864ZM16.7951 13.4045C16.7951 10.7992 14.6832 8.68715 12.0779 8.68715C9.47255 8.68715 7.36055 10.7992 7.36055 13.4045C7.36055 16.0097 9.47255 18.1217 12.0779 18.1217C14.6832 18.1217 16.7951 16.0097 16.7951 13.4045Z" fill="#303030"></path></svg> 