<?xml version="1.0" encoding="UTF-8"?> <svg xmlns="http://www.w3.org/2000/svg" width="101" height="40" viewBox="0 0 101 40" fill="none"><g clip-path="url(#clip0_927_321)"><path d="M5.65912 4.235C5.91912 3.001 7.14912 2 8.40212 2H15.2141L9.54912 28.823H2.73712C1.48312 28.823 0.677118 27.823 0.938118 26.588L5.65912 4.235ZM28.3661 4.235C28.6271 3.001 29.8561 2 31.1091 2H37.9211L32.2561 28.823H25.4441C24.1901 28.823 23.3841 27.823 23.6451 26.588L28.3661 4.235ZM73.7811 4.235C74.0411 3.001 75.2691 2 76.5241 2H83.3361L77.6711 28.823H70.8581C69.6041 28.823 68.7991 27.823 69.0601 26.588L73.7811 4.235ZM40.1921 2H47.0041C48.2581 2 49.0641 3 48.8031 4.235L44.0821 26.588C43.8221 27.823 42.5931 28.823 41.3391 28.823H34.5271L40.1921 2ZM85.6071 2H92.4191C93.6731 2 94.4791 3 94.2181 4.235L89.4961 26.588C89.2361 27.823 88.0081 28.823 86.7541 28.823H79.9411L85.6071 2ZM51.0741 4.235C51.3341 3.001 52.5621 2 53.8161 2H60.6291L54.9631 28.823H48.1511C46.8971 28.823 46.0911 27.823 46.3531 26.588L51.0731 4.235H51.0741ZM62.8991 2H69.7121C70.9661 2 71.7711 3 71.5101 4.235L64.4291 37.765C64.1671 38.999 62.9391 40 61.6851 40H54.8721L62.8991 2ZM13.7081 19.882H22.7911L21.3751 26.588C21.1141 27.823 19.8851 28.823 18.6321 28.823H11.8191L13.7071 19.883L13.7081 19.882ZM45.4091 31.059H54.4911L52.6031 40H45.7911C44.5361 40 43.7311 39 43.9921 37.765L45.4091 31.059ZM70.0631 33.138L68.9131 38.584C68.8631 38.818 68.7851 38.882 68.5471 38.882H68.0241C67.7861 38.882 67.7341 38.818 67.7841 38.584L68.9341 33.138C68.9841 32.905 69.0621 32.84 69.3001 32.84H69.8231C70.0611 32.84 70.1131 32.905 70.0631 33.138ZM71.5751 36.812H71.4681C71.3541 36.812 71.3141 36.844 71.2911 36.957L70.9471 38.584C70.8971 38.818 70.8181 38.882 70.5811 38.882H70.0571C69.8201 38.882 69.7681 38.818 69.8171 38.584L70.9671 33.138C71.0171 32.905 71.0971 32.84 71.3341 32.84H72.4141C73.6581 32.84 74.1291 33.283 73.8991 34.37L73.7071 35.281C73.4771 36.369 72.8191 36.812 71.5751 36.812ZM71.8911 34.113L71.5911 35.539C71.5661 35.652 71.5921 35.684 71.7071 35.684H71.8791C72.2791 35.684 72.4941 35.523 72.5811 35.112L72.7011 34.54C72.7881 34.13 72.6421 33.968 72.2411 33.968H72.0691C71.9551 33.968 71.9151 34 71.8911 34.113ZM75.6291 34.991L76.4791 35.926C76.9251 36.409 76.9871 36.699 76.8731 37.239L76.8431 37.384C76.6281 38.399 76.1161 38.963 74.9291 38.963C73.7431 38.963 73.4501 38.488 73.7241 37.19L73.7581 37.03C73.8081 36.796 73.8871 36.731 74.1241 36.731H74.6801C74.9181 36.731 74.9701 36.796 74.9201 37.029L74.8451 37.384C74.7771 37.706 74.8811 37.835 75.1671 37.835C75.4541 37.835 75.6101 37.715 75.6721 37.425L75.7041 37.271C75.7521 37.045 75.7261 36.933 75.4801 36.667L74.6801 35.805C74.2321 35.33 74.1751 35.055 74.2891 34.515L74.3261 34.339C74.5411 33.324 75.0531 32.759 76.2391 32.759C77.4261 32.759 77.7191 33.235 77.4451 34.532L77.4111 34.693C77.3611 34.927 77.2821 34.991 77.0451 34.991H76.4881C76.2511 34.991 76.1991 34.927 76.2481 34.693L76.3231 34.339C76.3911 34.016 76.2881 33.888 76.0011 33.888C75.7151 33.888 75.5581 34.008 75.4971 34.298L75.4681 34.435C75.4181 34.669 75.4441 34.782 75.6291 34.991ZM80.4211 33.138C80.4711 32.905 80.5491 32.84 80.7871 32.84H81.3101C81.5481 32.84 81.6001 32.905 81.5501 33.138L80.6941 37.191C80.4201 38.488 79.9271 38.963 78.7401 38.963C77.5541 38.963 77.2611 38.488 77.5351 37.19L78.3911 33.138C78.4411 32.905 78.5201 32.84 78.7571 32.84H79.2811C79.5181 32.84 79.5701 32.905 79.5211 33.138L78.6241 37.384C78.5561 37.706 78.6681 37.835 78.9791 37.835C79.2811 37.835 79.4561 37.706 79.5241 37.384L80.4211 33.138ZM83.8271 36.417C83.8301 36.482 83.8511 36.497 83.8921 36.497C83.9321 36.497 83.9611 36.482 83.9911 36.417L85.4051 33.05C85.4741 32.88 85.5561 32.84 85.7611 32.84H86.5551C86.7921 32.84 86.8441 32.905 86.7951 33.138L85.6451 38.584C85.5951 38.818 85.5151 38.882 85.2781 38.882H84.9021C84.6651 38.882 84.6121 38.818 84.6621 38.584L85.2141 35.974C85.2291 35.902 85.2161 35.885 85.1671 35.885C85.1341 35.885 85.0971 35.902 85.0771 35.958L83.9351 38.617C83.8531 38.81 83.7481 38.882 83.5111 38.882H83.2891C83.0431 38.882 82.9691 38.81 82.9691 38.617L82.9411 35.957C82.9361 35.901 82.9231 35.885 82.8821 35.885C82.8331 35.885 82.8131 35.902 82.7981 35.974L82.2471 38.584C82.1971 38.818 82.1191 38.882 81.8811 38.882H81.5051C81.2671 38.882 81.2151 38.818 81.2651 38.584L82.4151 33.138C82.4651 32.905 82.5441 32.84 82.7811 32.84H83.4611C83.7471 32.84 83.8391 32.905 83.8371 33.187L83.8261 36.417H83.8271ZM100.889 2C100.889 3.105 99.9991 4 98.9021 4C98.6403 3.99921 98.3812 3.94685 98.1396 3.8459C97.8981 3.74495 97.6788 3.5974 97.4942 3.41167C97.3097 3.22594 97.1636 3.00567 97.0642 2.76345C96.9649 2.52123 96.9142 2.26181 96.9151 2C96.9151 0.895 97.8051 0 98.9021 0C99.9991 0 100.889 0.895 100.889 2Z" fill="#303030"></path></g><defs><clipPath id="clip0_927_321"><rect width="100" height="40" fill="white" transform="translate(0.889038)"></rect></clipPath></defs></svg> 