<?xml version="1.0" encoding="UTF-8"?> <svg xmlns="http://www.w3.org/2000/svg" width="154" height="40" viewBox="0 0 154 40" fill="none"><path d="M25.2485 9.5144H27.6787V26.4281H34.9691V28.8583H25.2485V9.5144ZM42.5389 9.5144C43.9809 9.5144 45.3903 9.94199 46.5892 10.7431C47.7881 11.5442 48.7227 12.6827 49.2744 14.0149C49.8262 15.3471 49.9705 16.8129 49.6892 18.227C49.408 19.6413 48.7137 20.9403 47.694 21.9598C46.6744 22.9795 45.3754 23.6738 43.9612 23.9551C42.5471 24.2364 41.0812 24.092 39.749 23.5403C38.4168 22.9884 37.2783 22.054 36.4772 20.8551C35.6761 19.6562 35.2485 18.2467 35.2485 16.8048C35.2485 15.8475 35.4371 14.8993 35.8035 14.0149C36.1698 13.1303 36.7069 12.3267 37.3839 11.6498C38.0608 10.9727 38.8645 10.4357 39.749 10.0693C40.6335 9.70298 41.5816 9.5144 42.5389 9.5144ZM42.5389 21.6651C43.5002 21.6651 44.4399 21.38 45.2392 20.846C46.0385 20.3119 46.6614 19.5528 47.0292 18.6647C47.3971 17.7766 47.4934 16.7995 47.3058 15.8566C47.1183 14.9138 46.6553 14.0478 45.9756 13.3681C45.2959 12.6884 44.4299 12.2255 43.4872 12.038C42.5443 11.8504 41.5671 11.9466 40.679 12.3145C39.7909 12.6823 39.0318 13.3053 38.4977 14.1046C37.9637 14.9038 37.6787 15.8436 37.6787 16.8048C37.6851 18.0896 38.1999 19.3196 39.1107 20.2258C40.0216 21.132 41.2541 21.6408 42.5389 21.6408V21.6651ZM37.6787 26.4524H47.3992V28.8826H37.6787V26.4524ZM68.7844 28.8826H66.3543V27.145C64.7871 28.242 62.921 28.8315 61.008 28.834C59.3767 28.8449 57.769 28.4451 56.3329 27.6715C54.8967 26.8978 53.6783 25.7752 52.7901 24.407C51.9018 23.0388 51.372 21.4691 51.2498 19.8424C51.1274 18.2157 51.4165 16.5844 52.0902 15.0989C52.764 13.6132 53.8008 12.321 55.105 11.3414C56.4094 10.3617 57.9393 9.72595 59.5538 9.4929C61.1683 9.25973 62.8156 9.43676 64.3437 10.0075C65.8719 10.5782 67.2319 11.5242 68.2984 12.7586L66.5122 14.3504C65.701 13.4434 64.6759 12.754 63.5299 12.3449C62.3841 11.9357 61.1541 11.8198 59.9521 12.0077C58.7499 12.1957 57.614 12.6816 56.6477 13.421C55.6815 14.1605 54.9156 15.1298 54.4201 16.2411C53.9245 17.3523 53.7149 18.5698 53.8104 19.7828C53.9059 20.9958 54.3033 22.1656 54.9668 23.1855C55.6302 24.2054 56.5382 25.0432 57.6083 25.6223C58.6783 26.2014 59.8764 26.5035 61.093 26.501C62.1027 26.5031 63.101 26.2871 64.0196 25.8676C64.9381 25.4482 65.7552 24.8353 66.415 24.0709H59.8536V21.6408H68.8087L68.7844 28.8826ZM77.7273 9.56301C79.1692 9.56301 80.5787 9.99059 81.7776 10.7917C82.9765 11.5928 83.911 12.7313 84.4628 14.0635C85.0145 15.3957 85.1589 16.8615 84.8776 18.2756C84.5963 19.6899 83.902 20.9889 82.8823 22.0085C81.8628 23.0281 80.5637 23.7224 79.1495 24.0037C77.7354 24.285 76.2696 24.1407 74.9374 23.5889C73.6052 23.037 72.4666 22.1026 71.6655 20.9037C70.8645 19.7048 70.4369 18.2953 70.4369 16.8534C70.4304 15.8899 70.6151 14.9347 70.9801 14.043C71.3451 13.1512 71.8833 12.3406 72.5635 11.6583C73.2437 10.9758 74.0524 10.4349 74.943 10.0669C75.8335 9.69897 76.788 9.51112 77.7516 9.5144L77.7273 9.56301ZM77.7273 21.7137C78.6885 21.7137 79.6283 21.4286 80.4275 20.8946C81.2268 20.3605 81.8498 19.6014 82.2176 18.7133C82.5855 17.8252 82.6817 16.8481 82.4941 15.9052C82.3066 14.9624 81.8437 14.0964 81.164 13.4167C80.4843 12.737 79.6183 12.2741 78.6755 12.0866C77.7326 11.899 76.7555 11.9952 75.8674 12.3631C74.9793 12.7309 74.2201 13.3539 73.6861 14.1532C73.1521 14.9524 72.867 15.8922 72.867 16.8534C72.8862 18.134 73.41 19.3552 74.3247 20.2517C75.2393 21.1481 76.4709 21.6473 77.7516 21.6408L77.7273 21.7137ZM72.867 26.501H82.5875V28.9312H72.867V26.501ZM87.6058 9.5144H90.0359V28.834H87.6058V9.5144ZM93.4016 9.5144H95.8318C95.9569 9.50116 96.0832 9.50116 96.2084 9.5144C97.2262 9.40395 98.2558 9.50918 99.2302 9.82303C100.205 10.137 101.102 10.6526 101.864 11.3363C102.626 12.02 103.235 12.8566 103.652 13.7914C104.07 14.7263 104.285 15.7386 104.285 16.7623C104.285 17.786 104.07 18.7982 103.652 19.7331C103.235 20.668 102.626 21.5046 101.864 22.1883C101.102 22.872 100.205 23.3876 99.2302 23.7015C98.2558 24.0154 97.2262 24.1206 96.2084 24.0102H95.8318V28.8704H93.4016V9.5144ZM95.8318 11.9445V21.5557H96.2084C96.8948 21.6471 97.5928 21.5908 98.2557 21.3905C98.9185 21.1902 99.5309 20.8506 100.052 20.3945C100.573 19.9383 100.99 19.3761 101.276 18.7455C101.562 18.1149 101.71 17.4304 101.71 16.738C101.71 16.0455 101.562 15.3611 101.276 14.7304C100.99 14.0998 100.573 13.5376 100.052 13.0815C99.5309 12.6252 98.9185 12.2857 98.2557 12.0854C97.5928 11.8851 96.8948 11.8289 96.2084 11.9202C96.0761 11.934 95.9456 11.9625 95.8196 12.0053L95.8318 11.9445ZM113.341 10.9117L111.543 12.3334C111.232 12.0092 110.836 11.7803 110.4 11.6736C109.964 11.5669 109.507 11.5868 109.082 11.7311C108.657 11.8752 108.282 12.1376 108.001 12.4876C107.72 12.8375 107.545 13.2603 107.496 13.7064V13.9008C107.496 14.9701 108.238 15.6869 109.684 15.7841C115.249 16.1244 117.8 18.7368 117.8 22.1876V22.4063C117.656 23.772 117.124 25.0677 116.265 26.1394C115.406 27.2111 114.257 28.0134 112.956 28.4512C111.654 28.8889 110.254 28.9436 108.922 28.6086C107.59 28.2737 106.383 27.5633 105.443 26.5618L107.302 25.128C107.735 25.5918 108.263 25.9558 108.851 26.1951C109.438 26.4342 110.071 26.5428 110.704 26.5132C111.875 26.5749 113.023 26.1821 113.911 25.4167C114.798 24.6515 115.356 23.5728 115.467 22.4063V22.2362C115.467 18.9919 112.284 18.3965 109.526 18.1292C106.974 17.8862 105.139 16.2945 105.139 13.998V13.9008C105.229 12.7052 105.775 11.5897 106.663 10.7849C107.552 9.9799 108.716 9.54685 109.914 9.57516C110.55 9.55644 111.182 9.67103 111.77 9.91173C112.358 10.1524 112.889 10.5138 113.329 10.9725L113.341 10.9117ZM127.314 26.3674C130.34 26.3674 132.733 23.0989 132.733 19.077V9.35645H135.163V19.077C135.163 24.4233 131.664 28.7368 127.363 28.7368C123.061 28.7368 119.562 24.4233 119.562 19.077V9.35645H121.992V19.077C121.895 23.1596 124.289 26.4281 127.302 26.4281L127.314 26.3674ZM153.815 28.7975H151.385V16.7684L145.783 24.0588L140.182 16.7684V28.834H137.752V9.5144L145.771 20.0733L153.79 9.5144L153.815 28.7975Z" fill="#303030"></path><path d="M13.5839 6.60996C13.5839 4.85689 12.8876 3.17561 11.648 1.93601C10.4084 0.696403 8.72705 0 6.97398 0C5.2209 0 3.53964 0.696403 2.30003 1.93601C1.06042 3.17561 0.364014 4.85689 0.364014 6.60996V26.5978L5.80751 30.4982V40H8.14044V30.4982L13.5839 26.5978V6.60996ZM11.251 17.7886L8.14044 20.8992V17.983L11.251 14.8724V17.7886ZM2.74554 14.8724L5.85612 17.983V20.8992L2.74554 17.7886V14.8724ZM11.251 11.5674L6.97398 15.8445L2.69694 11.4702V8.55407L6.97398 12.8311L11.251 8.55407V11.5674ZM6.97398 2.33293C7.91462 2.33708 8.82796 2.64949 9.5741 3.22227C10.3203 3.79505 10.8581 4.59663 11.1052 5.50425L6.97398 9.62333L2.84275 5.50425C3.08083 4.58761 3.61477 3.77515 4.36174 3.19296C5.10872 2.61077 6.02694 2.29136 6.97398 2.28431V2.33293ZM2.69694 25.4192V21.045L5.80751 24.1555V27.6306L2.69694 25.4192ZM8.14044 27.6428V24.1555L11.251 21.045V25.407L8.14044 27.6428Z" fill="#303030"></path></svg> 