<?xml version="1.0" encoding="UTF-8"?> <svg xmlns="http://www.w3.org/2000/svg" width="65" height="40" viewBox="0 0 65 40" fill="none"><g clip-path="url(#clip0_927_297)"><path d="M60.3476 4.91637C60.3476 4.963 60.3476 5.0213 60.3357 5.05628C60.276 5.51102 60.276 5.96576 60.3118 6.43216C60.3357 6.54876 60.3595 6.66536 60.4549 6.75864C60.6099 6.93353 60.8484 6.89856 60.9439 6.68867C60.9916 6.58374 60.9916 6.47879 60.9677 6.37386C60.8484 5.93077 60.8246 5.46438 60.8127 5.00964C60.8127 4.98632 60.8127 4.95134 60.8127 4.91637C60.9439 4.9047 61.0631 4.89304 61.1704 4.89304C61.2539 4.88138 61.3255 4.86972 61.3851 4.83474C61.5639 4.74147 61.5639 4.54325 61.3731 4.44997C61.3016 4.41498 61.2062 4.40332 61.1228 4.40332C60.8246 4.41498 60.5265 4.41498 60.2283 4.41498C60.121 4.41498 60.0137 4.42665 59.9063 4.4383C59.8467 4.44997 59.7751 4.44997 59.7275 4.48495C59.644 4.51992 59.5963 4.57822 59.5963 4.65984C59.6082 4.74147 59.644 4.7881 59.7275 4.82308C59.7751 4.85807 59.8348 4.86972 59.8944 4.86972C60.0375 4.88138 60.1926 4.9047 60.3476 4.91637ZM63.627 5.45272C63.627 5.46438 63.6389 5.47604 63.6389 5.47604C63.6867 5.79086 63.7344 6.09402 63.7701 6.39717C63.7821 6.50211 63.794 6.59539 63.8656 6.67701C64.0206 6.87523 64.2591 6.85191 64.3664 6.64204C64.4141 6.53709 64.426 6.43216 64.4022 6.31556C64.3307 5.96576 64.2949 5.61596 64.2233 5.27782C64.1756 5.06794 64.116 4.86972 64.0564 4.68317C64.0206 4.56657 63.9371 4.48494 63.794 4.47328C63.6509 4.44997 63.5436 4.51992 63.4839 4.62487C63.4124 4.71814 63.3528 4.81142 63.305 4.91637C63.2216 5.10292 63.15 5.28948 63.0547 5.46438C63.0427 5.51102 63.0308 5.546 63.007 5.58097C62.995 5.55766 62.9831 5.546 62.9831 5.546C62.828 5.2545 62.6849 4.963 62.5299 4.68317C62.506 4.65984 62.4941 4.63652 62.4822 4.6132C62.4107 4.50827 62.3272 4.44997 62.196 4.44997C62.0768 4.46162 61.9813 4.53158 61.9218 4.63652C61.8979 4.68317 61.8979 4.71814 61.886 4.76478C61.8382 5.1379 61.7786 5.51102 61.7309 5.88414C61.707 6.09402 61.6951 6.30389 61.6951 6.51377C61.6832 6.56041 61.6951 6.61871 61.7189 6.66536C61.7429 6.75863 61.8144 6.81694 61.9098 6.82859C62.029 6.84026 62.1125 6.80527 62.1483 6.71199C62.184 6.64204 62.196 6.58374 62.2079 6.52544C62.2557 6.31556 62.2914 6.11734 62.3272 5.91912C62.351 5.80252 62.3629 5.70924 62.3988 5.58097C62.4226 5.62762 62.4464 5.6626 62.4703 5.69757C62.5776 5.8375 62.685 5.97742 62.8161 6.09402C62.9473 6.18729 63.0547 6.17564 63.1619 6.07069C63.1859 6.04737 63.1978 6.03572 63.2216 6.01239C63.329 5.84916 63.4601 5.68592 63.5674 5.52267C63.5913 5.49936 63.6032 5.47604 63.627 5.45272Z" fill="#303030"></path><path d="M36.1493 5.14563C36.0664 5.36722 36.0506 5.52687 36.0889 5.65956C36.1311 5.83999 36.2409 5.89907 36.3898 5.85318C37.7905 5.51451 40.862 6.47578 41.9992 6.7437C42.2674 6.79996 42.4856 6.46146 42.3026 6.15797C42.0355 5.86406 38.9653 4.60572 37.7939 4.53711C37.3347 4.51174 36.5138 4.39661 36.1493 5.14563Z" fill="#303030"></path><path d="M48.1535 1.07225C48.3028 1.1565 48.3862 1.23686 48.4274 1.32665C48.4888 1.44443 48.4564 1.52592 48.3533 1.5675C47.4274 2.00934 46.1953 3.91153 45.698 4.56758C45.5774 4.7185 45.2993 4.6308 45.2573 4.38261C45.266 4.102 46.3581 2.0377 46.9677 1.47545C47.2072 1.25593 47.603 0.825212 48.1535 1.07225Z" fill="#303030"></path><path d="M40.7798 0.136178C40.9592 0.00401716 41.1456 -0.042296 41.2407 0.043592C42.6377 1.21173 43.3786 3.06157 43.8373 4.75506C43.8546 4.79452 43.8557 4.85114 43.8418 4.9102C43.8361 4.96068 43.7984 5.01401 43.7385 5.05527C43.6745 5.10083 43.6194 5.1147 43.5935 5.07545C42.9812 4.2612 39.4842 1.09311 40.7798 0.136178Z" fill="#303030"></path><path d="M11.1969 20.3883C11.5317 20.1446 11.8957 19.9417 12.2809 19.7842C12.6839 19.6716 13.1134 19.6902 13.5046 19.8375C13.8957 19.9847 14.2272 20.2525 14.4489 20.6003C14.6471 20.9472 14.7247 21.3477 14.67 21.7416C14.6152 22.1353 14.4311 22.501 14.1453 22.7837C13.9238 23.0127 13.6722 23.2123 13.3974 23.3772C12.1725 24.1509 10.9367 24.8822 9.70093 25.6559C9.44806 25.8496 9.17982 26.0233 8.89875 26.1753C8.47123 26.3837 7.98265 26.4396 7.51748 26.3331C7.05232 26.2267 6.63983 25.9647 6.35133 25.5924C6.13567 25.3287 5.95366 25.0405 5.80933 24.7338C4.6386 22.3279 3.42452 19.9326 2.29714 17.4842C1.77682 16.4244 1.35406 15.2055 0.942133 14.029C0.763916 13.6872 0.729114 13.2909 0.845138 12.9244C0.961162 12.5578 1.21886 12.25 1.56341 12.0664C1.90796 11.8827 2.31218 11.8378 2.69011 11.9411C3.06803 12.0444 3.38985 12.2877 3.58711 12.6194C4.19343 13.4072 4.73014 14.244 5.19144 15.1207C6.36217 17.2405 7.47871 19.3602 8.60607 21.4164C8.67172 21.53 8.7441 21.6397 8.82287 21.7449C9.67141 21.3961 10.4695 20.94 11.1969 20.3883Z" fill="#303030"></path><path d="M23.3015 19.6495C20.624 22.7125 16.1362 21.9387 13.8815 17.996C12.2771 15.1979 11.9953 10.5768 15.4858 7.66217C16.2312 7.05196 17.1225 6.63628 18.0766 6.4539C19.2464 6.28993 20.4393 6.49171 21.4847 7.03042C22.5302 7.56913 23.3747 8.41717 23.8977 9.45338C25.8056 12.845 25.5346 17.1693 23.3015 19.6495ZM22.2175 12.5058C21.933 11.6724 21.3624 10.9608 20.6023 10.492C20.1722 10.1923 19.6496 10.0466 19.1225 10.0794C18.5953 10.1122 18.0958 10.3216 17.708 10.6722C16.1579 12.0183 15.8327 15.2086 16.96 17.1057C17.1037 17.4151 17.3147 17.69 17.5785 17.9113C17.8422 18.1326 18.1522 18.2948 18.4867 18.3867C18.8213 18.4786 19.1723 18.4978 19.5153 18.4432C19.8583 18.3885 20.1848 18.2612 20.4723 18.0702C21.3126 17.4332 21.929 16.5561 22.2359 15.5608C22.5429 14.5655 22.5251 13.5014 22.185 12.5165L22.2175 12.5058Z" fill="#303030"></path><path d="M34.2282 13.8414C33.9541 13.8991 33.6709 13.9025 33.3954 13.8515C33.1199 13.8005 32.8576 13.6963 32.6239 13.5447C32.4195 13.4303 32.2435 13.2732 32.1086 13.0843C31.9737 12.8955 31.8834 12.6799 31.844 12.4528C31.8046 12.2258 31.8172 11.9931 31.8807 11.7713C31.9444 11.5496 32.0576 11.3444 32.212 11.1705C32.4811 10.8211 32.8631 10.5709 33.296 10.4604C34.4263 10.1397 35.5898 9.94416 36.7648 9.87753C37.023 9.84816 37.2846 9.86953 37.5341 9.94035C37.7837 10.0113 38.0163 10.1301 38.2183 10.2901C38.4202 10.45 38.5875 10.6478 38.7102 10.8718C38.8328 11.0958 38.9086 11.3415 38.9328 11.5945C39.2716 12.8373 39.3087 14.1403 39.0412 15.3995C38.0657 19.4694 34.7052 20.8684 30.9328 19.5648C29.8739 19.2163 28.9455 18.5668 28.2662 17.6994C27.3602 16.6549 26.7178 15.417 26.3908 14.0853C26.1259 12.8993 26.1549 11.6688 26.4756 10.4962C26.7961 9.32353 27.3989 8.24285 28.2337 7.34439C29.0258 6.36787 30.054 5.59935 31.2256 5.10804C31.9658 4.70908 32.8321 4.59565 33.6537 4.79007C33.8401 4.84051 34.0093 4.93878 34.1437 5.0747C34.2782 5.21063 34.373 5.37924 34.4184 5.56306C34.4637 5.74688 34.4579 5.93922 34.4017 6.12013C34.3453 6.30103 34.2406 6.46391 34.0982 6.59187C33.8275 6.83146 33.5334 7.04446 33.2201 7.2278C32.2564 7.82786 31.4177 8.60109 30.7486 9.50653C30.3099 10.0924 30.0078 10.7653 29.8637 11.4775C29.7194 12.1898 29.7366 12.9243 29.9139 13.6295C30.1597 14.591 30.7053 15.454 31.4748 16.099C33.8597 18.2188 36.9599 16.1732 36.4179 13.2797C35.6267 13.4705 34.9328 13.6719 34.2282 13.8414Z" fill="#303030"></path><path d="M48.7975 19.8191C45.2745 21.9389 41.2637 19.8191 40.3856 15.3676C39.746 12.188 40.9601 7.73644 45.2095 6.04063C46.1136 5.68759 47.0942 5.56363 48.0604 5.68027C49.2212 5.88804 50.2861 6.4468 51.1049 7.27777C51.9236 8.10873 52.455 9.16997 52.624 10.312C53.3395 14.0957 51.7135 18.1339 48.7975 19.8191ZM50.0225 12.6861C50.0214 11.8056 49.7029 10.9536 49.1228 10.2802C48.8127 9.86361 48.3644 9.56515 47.8544 9.4356C47.3443 9.30615 46.8042 9.3536 46.326 9.57006C44.4181 10.3755 43.074 13.3008 43.5618 15.4524C43.599 15.7901 43.7112 16.1157 43.8906 16.4065C44.0699 16.6973 44.3121 16.9463 44.6002 17.1362C44.8882 17.3259 45.2152 17.4519 45.5582 17.5052C45.9013 17.5585 46.2521 17.538 46.5861 17.445C47.5946 17.1005 48.4678 16.4568 49.0838 15.6036C49.6999 14.7504 50.028 13.7304 50.0225 12.6861Z" fill="#303030"></path><path d="M56.1868 20.7091C56.1336 21.097 55.9251 21.4484 55.6069 21.6859C55.2887 21.9234 54.8871 22.0277 54.4903 21.9757C54.0936 21.9237 53.7342 21.7197 53.4913 21.4086C53.2483 21.0976 53.1418 20.7048 53.195 20.3169C53.2482 19.929 53.4568 19.5777 53.7749 19.3401C54.0931 19.1026 54.4947 18.9984 54.8914 19.0504C55.2882 19.1024 55.6475 19.3063 55.8905 19.6174C56.1334 19.9285 56.2401 20.3212 56.1868 20.7091ZM55.2437 6.41128C55.4499 6.10341 55.7523 5.86897 56.106 5.7429C56.4595 5.61684 56.8453 5.60591 57.2058 5.71176C57.5722 5.8014 57.896 6.01141 58.123 6.30662C58.3499 6.60184 58.4662 6.96432 58.4524 7.33338C58.4046 7.92535 58.3141 8.51328 58.1814 9.09276C57.8237 11.0536 57.4768 13.0143 57.0974 14.9539C56.924 15.7277 56.6963 16.4696 56.447 17.2538C56.3602 17.499 56.2153 17.7206 56.0242 17.9004C55.9054 18.0357 55.7537 18.1394 55.583 18.202C55.4122 18.2648 55.2281 18.2843 55.0477 18.2589C54.8672 18.2336 54.6961 18.1641 54.5504 18.057C54.4047 17.9498 54.289 17.8085 54.214 17.646C54.0851 17.3546 54.0151 17.0414 54.008 16.7239C54.008 15.4097 54.008 14.0848 54.0947 12.7599C54.2421 10.8692 54.5319 8.99165 54.9619 7.14259C55.0125 6.89487 55.1079 6.65797 55.2437 6.44308V6.41128Z" fill="#303030"></path><path fill-rule="evenodd" clip-rule="evenodd" d="M6.61696 29.2262C6.48897 29.5056 6.45387 29.817 6.51641 30.1168C6.55802 30.5119 6.64941 30.9005 6.7885 31.2738C6.96216 31.7309 7.15647 32.1829 7.39607 32.74C7.45117 32.8681 7.50876 33.002 7.56901 33.1428C7.89212 33.8975 8.29754 34.8621 8.83831 36.258C8.99137 36.6545 9.12729 37.0543 9.26417 37.4569C9.31946 37.6195 9.37495 37.7827 9.43175 37.9462C9.63535 38.5277 9.98567 39.0501 10.45 39.4641C10.6472 39.6916 10.9088 39.8574 11.202 39.9403C11.501 40.0249 11.819 40.0195 12.1149 39.925C12.4107 39.8303 12.6705 39.6509 12.8606 39.4099C13.0469 39.1736 13.1578 38.8889 13.1793 38.5914C13.3002 38.012 13.2589 37.4111 13.0597 36.8525C12.7434 35.925 12.3831 34.9961 11.9677 34.0875L11.9658 34.0835C11.2823 32.662 10.5876 31.2504 9.85998 29.8382L9.85454 29.8283C9.64154 29.4604 9.36473 29.1315 9.03655 28.8564C8.82349 28.6109 8.52961 28.4452 8.20507 28.3881C7.8736 28.3299 7.53175 28.3886 7.24053 28.554C6.96504 28.7078 6.74666 28.9431 6.61696 29.2262Z" fill="#303030"></path><path fill-rule="evenodd" clip-rule="evenodd" d="M17.0557 25.726C15.984 25.4546 14.8648 25.4151 13.7761 25.6101C12.9328 25.6913 12.1035 25.8815 11.5276 26.2582C11.2347 26.45 10.9978 26.6961 10.8661 27.0091C10.7337 27.3237 10.7167 27.6835 10.8253 28.0844C11.0235 28.8188 11.2808 29.5328 11.5373 30.2445L11.5788 30.3598L11.5798 30.3623C12.352 32.43 13.1316 34.4906 13.9182 36.5441C14.0099 36.8678 14.1397 37.18 14.3047 37.4744L14.3078 37.4799C14.5259 37.8457 14.8057 38.1729 15.1352 38.4477C15.3 38.5988 15.5038 38.7033 15.7248 38.7501C15.948 38.7971 16.1801 38.7835 16.3958 38.7104C16.6117 38.6374 16.8027 38.5079 16.9484 38.3359C17.0917 38.1667 17.1855 37.9629 17.2199 37.746C17.3621 37.1567 17.3166 36.539 17.0893 35.9757C17.0184 35.7861 16.9627 35.5924 16.9041 35.3885C16.8846 35.3205 16.8647 35.2513 16.8438 35.1809C18.6445 34.4927 20.5604 33.5673 21.2341 31.4146C21.4979 30.6707 21.5199 29.8651 21.297 29.1084C21.0739 28.3509 20.6162 27.6794 19.9869 27.1865C19.1305 26.4965 18.13 25.998 17.0557 25.726ZM14.0852 28.3664C14.1207 28.3564 14.1564 28.3471 14.1922 28.3385C15.3645 28.1583 16.5638 28.3984 17.5695 29.0144C18.0127 29.3158 18.1942 29.6506 18.2254 29.9728C18.2576 30.3045 18.1342 30.664 17.8864 31.0095C17.4181 31.6622 16.5636 32.1847 15.7917 32.2821C15.2289 31.015 14.6575 29.6966 14.0852 28.3664Z" fill="#303030"></path><path d="M24.2002 23.4071C25.4763 22.8308 27.0572 22.7312 28.2942 23.1364C28.6057 23.2251 28.876 23.4171 29.0588 23.6793C29.2404 23.94 29.3242 24.2541 29.2962 24.5681C29.2944 24.7719 29.2432 24.9724 29.147 25.1533C29.049 25.3375 28.9071 25.4959 28.7332 25.6151C28.5594 25.7343 28.3588 25.811 28.1483 25.8383C27.9378 25.8658 27.7237 25.8432 27.524 25.7726L27.5088 25.7672L27.4945 25.7599C27.3923 25.7076 27.2838 25.6682 27.1715 25.6426L27.1644 25.6411C26.2942 25.4151 25.4734 25.7895 25.1736 26.2496C25.0306 26.469 25.0129 26.6904 25.132 26.8919C25.2595 27.1076 25.5723 27.3497 26.2053 27.5222C26.3794 27.569 26.5579 27.6141 26.7389 27.6599C27.2394 27.7866 27.7596 27.9182 28.2626 28.1007L28.2645 28.1014C30.5851 28.9647 31.4492 30.7526 31.1533 32.4342C30.8607 34.0972 29.4402 35.6107 27.3042 35.9677C26.5269 36.1361 25.718 36.1033 24.9575 35.8725C24.1952 35.641 23.508 35.2185 22.9642 34.6469L22.9501 34.632C22.7784 34.4166 22.663 34.1636 22.6118 33.8951C22.5647 33.6529 22.5895 33.4025 22.6832 33.1735C22.7762 32.9459 22.9337 32.7489 23.1369 32.6053C23.3515 32.4426 23.6102 32.345 23.8811 32.3246C24.151 32.3043 24.4211 32.3617 24.6581 32.4895C24.8948 32.6013 25.115 32.744 25.3126 32.9136L25.3163 32.9167C25.666 33.2293 26.089 33.3108 26.4946 33.2353C26.9062 33.1588 27.2932 32.9207 27.5421 32.6048C27.7893 32.2909 27.8886 31.918 27.7708 31.556C27.6522 31.1913 27.2958 30.7828 26.5126 30.4412C26.3079 30.3562 26.0956 30.2877 25.8748 30.221C25.8152 30.203 25.7547 30.1851 25.6934 30.1669C25.5302 30.1184 25.3622 30.0685 25.1974 30.0135C25.084 29.9757 24.9714 29.9399 24.86 29.9043C24.5553 29.8073 24.2583 29.7128 23.9725 29.586C23.3504 29.3789 22.813 28.9812 22.4402 28.4519C22.0658 27.9204 21.8774 27.2849 21.9031 26.6401C21.9051 25.069 22.9172 23.9865 24.2002 23.4071Z" fill="#303030"></path><path d="M40.3795 23.2388C40.132 23.1207 39.8584 23.0646 39.5833 23.0756C39.3081 23.0867 39.0401 23.1645 38.8035 23.3022C38.5683 23.4389 38.3714 23.6304 38.2303 23.8596C38.1009 24.0526 38.0114 24.2684 37.9668 24.495C37.9221 24.7215 37.9232 24.9542 37.9698 25.1801C38.0159 25.4705 38.067 25.7528 38.1175 26.0313C38.201 26.4921 38.2823 26.9426 38.3359 27.4018L38.3379 27.4135C38.46 28.1338 38.5239 28.8622 38.5297 29.5922L38.5302 29.6026C38.5719 30.3909 38.2972 31.1639 37.7649 31.7576L37.7565 31.7681C37.5833 31.9851 37.3518 32.1508 37.0877 32.2465C36.8237 32.3422 36.5377 32.3642 36.2616 32.31C35.9855 32.2558 35.7303 32.1277 35.5245 31.9398C35.3187 31.7518 35.1702 31.5109 35.0961 31.2454C34.9379 30.6857 34.8464 30.1099 34.8231 29.5298L35.0933 25.324C35.0973 25.2691 35.1018 25.2128 35.1065 25.1558C35.1168 25.0281 35.1273 24.898 35.1317 24.7767C35.138 24.5981 35.1326 24.4145 35.09 24.2407C35.0465 24.063 34.9637 23.894 34.8168 23.7501C34.6713 23.6077 34.4749 23.5026 34.2278 23.431C33.781 23.3046 33.4032 23.3086 33.0884 23.4392C32.7734 23.5698 32.5576 23.8124 32.4048 24.0926C32.2533 24.3704 32.1559 24.6993 32.0823 25.0288C32.0277 25.2732 31.9838 25.5298 31.942 25.7741C31.9276 25.8583 31.9135 25.9409 31.8992 26.0212L31.8988 26.0236C31.6756 27.3632 31.6091 28.7234 31.7008 30.0778C31.7178 30.8097 31.8739 31.5321 32.1612 32.2082C32.4853 33.0806 33.0723 33.8364 33.8448 34.3759C34.6188 34.9166 35.5426 35.2145 36.4937 35.2302C37.4448 35.2459 38.3783 34.9788 39.1707 34.4641C39.9618 33.9502 40.5748 33.2137 40.9288 32.3519C41.424 31.2542 41.6566 30.0604 41.6086 28.8615C41.5795 27.9862 41.5308 27.1042 41.4823 26.2267C41.4585 25.7962 41.4348 25.3667 41.4135 24.9398C41.4028 24.5117 41.2584 24.097 40.9997 23.7515C40.8396 23.533 40.6265 23.3568 40.3795 23.2388Z" fill="#303030"></path><path d="M49.1379 29.834C49.1128 29.8652 49.0863 29.8975 49.0587 29.931C48.8574 28.7957 48.6709 27.6608 48.4841 26.5242C48.4171 26.1164 48.3497 25.7068 48.282 25.2985L48.2743 25.2529L48.2496 25.2135C48.203 25.1395 48.1983 25.0668 48.1983 24.9119V24.894L48.1955 24.8763C48.145 24.5564 47.997 24.2586 47.7709 24.0221C47.5454 23.7862 47.2526 23.622 46.9305 23.5507C46.609 23.4732 46.2711 23.4903 45.9593 23.5999C45.6484 23.7093 45.3774 23.9058 45.1802 24.1649C45.0162 24.3637 44.8817 24.5843 44.781 24.8199C44.5523 25.3275 44.3217 25.8365 44.0904 26.3467L44.0864 26.3555C43.5091 27.6295 42.9278 28.9119 42.3634 30.2045L42.3617 30.2086C42.0153 31.0467 41.7293 31.9298 41.4443 32.8102C41.3873 32.9859 41.3304 33.1615 41.2731 33.3367C41.1702 33.6145 41.1252 33.9096 41.1406 34.2046C41.1219 34.4687 41.1865 34.7322 41.326 34.9594C41.4682 35.1912 41.6812 35.3735 41.9349 35.4809C42.2038 35.5962 42.5044 35.6206 42.7893 35.5505C43.0734 35.4804 43.3258 35.32 43.5066 35.0945C43.7375 34.8168 43.9362 34.5139 44.0982 34.193C44.5763 33.2368 45.0332 32.269 45.488 31.3054C45.664 30.9326 45.835 30.5988 46.0295 30.2353C46.0429 30.2801 46.0565 30.3238 46.0706 30.3676C46.2745 31.2454 46.6187 32.0861 47.0904 32.859C47.1797 33.0227 47.3041 33.1658 47.455 33.2785C47.6077 33.3925 47.784 33.4725 47.9715 33.5131C48.1591 33.5537 48.3534 33.5539 48.5411 33.5136C48.7284 33.4735 48.9053 33.3934 49.0581 33.2799L49.3605 33.0585L51.7081 31.1252L51.5693 31.9902C51.3787 33.1792 51.1896 34.3583 50.9887 35.5376C50.8573 36.0604 50.8574 36.6064 50.9893 37.1289C51.0463 37.423 51.1918 37.6937 51.4071 37.9066C51.6242 38.1213 51.9022 38.2671 52.2051 38.3253C52.508 38.3834 52.8218 38.3512 53.1057 38.2327C53.3855 38.1161 53.6235 37.921 53.7899 37.6724C54.177 37.2028 54.4179 36.6344 54.4841 36.0346C54.5837 35.1877 54.6963 34.3293 54.8089 33.4711C54.9386 32.4819 55.0683 31.493 55.1779 30.5231L55.1783 30.5201C55.2837 29.4584 55.3347 28.3923 55.3312 27.3255C55.3543 26.9885 55.2684 26.6526 55.0855 26.3656C54.902 26.0776 54.6302 25.8537 54.3089 25.7256C53.9747 25.5771 53.6006 25.5374 53.2416 25.6125C52.885 25.687 52.5622 25.8708 52.32 26.1371C51.887 26.5286 51.4808 26.9476 51.104 27.3914L51.1014 27.3944C50.6901 27.8955 50.2815 28.4065 49.8756 28.9143C49.6288 29.2229 49.3827 29.5308 49.1379 29.834Z" fill="#303030"></path></g><defs><clipPath id="clip0_927_297"><rect width="63.6364" height="40" fill="white" transform="translate(0.777771)"></rect></clipPath></defs></svg> 