<?xml version="1.0" encoding="UTF-8"?> <svg xmlns="http://www.w3.org/2000/svg" width="82" height="40" viewBox="0 0 82 40" fill="none"><path d="M19.8497 19.6242L20.0263 19.5869H34.7091L40.2264 25.1042H25.3298L19.8497 19.6242Z" fill="#303030"></path><path d="M15.1228 19.5869L0.226196 19.587L5.74342 25.1042H15.1226L15.1228 19.5869Z" fill="#303030"></path><path d="M45.3534 3.7373H47.6415V10.8471H51.5714V12.7732H45.3534V3.7373Z" fill="#303030"></path><path d="M55.7254 12.9677C54.9584 12.9677 54.2864 12.8298 53.7086 12.554C53.1312 12.2696 52.6832 11.8819 52.3642 11.3906C52.0539 10.8908 51.8988 10.3177 51.8988 9.67131C51.8988 9.025 52.0539 8.4562 52.3642 7.965C52.6832 7.46518 53.1312 7.07736 53.7086 6.80162C54.2864 6.51716 54.9584 6.375 55.7254 6.375C56.4924 6.375 57.1649 6.51716 57.7422 6.80162C58.3194 7.07736 58.7632 7.46518 59.0735 7.965C59.3924 8.4562 59.5519 9.025 59.5519 9.67131C59.5519 10.3177 59.3924 10.8908 59.0735 11.3906C58.7632 11.8819 58.3194 12.2696 57.7422 12.554C57.1649 12.8298 56.4924 12.9677 55.7254 12.9677ZM55.7254 11.1967C56.1821 11.1967 56.5443 11.0631 56.8113 10.796C57.087 10.5202 57.2248 10.1454 57.2248 9.67131C57.2248 9.19736 57.087 8.82678 56.8113 8.55958C56.5443 8.28384 56.1821 8.14598 55.7254 8.14598C55.2686 8.14598 54.9027 8.28384 54.6264 8.55958C54.3594 8.82678 54.2259 9.19736 54.2259 9.67131C54.2259 10.1454 54.3594 10.5202 54.6264 10.796C54.9027 11.0631 55.2686 11.1967 55.7254 11.1967Z" fill="#303030"></path><path d="M63.8254 15.747C63.4119 15.747 62.9941 15.7082 62.5713 15.6306C62.1578 15.5531 61.8005 15.4496 61.4989 15.3204V13.7433C62.1795 14.0363 62.9551 14.1829 63.8254 14.1829C64.4546 14.1829 64.907 14.0535 65.1827 13.795C65.467 13.5365 65.6092 13.1574 65.6092 12.6574V12.2825C65.3595 12.498 65.0493 12.6661 64.6789 12.7867C64.3168 12.9074 63.9286 12.9677 63.5151 12.9677C62.8606 12.9677 62.2827 12.8298 61.7833 12.554C61.2832 12.2783 60.8914 11.8904 60.6064 11.3906C60.3308 10.8908 60.193 10.3177 60.193 9.67131C60.193 9.01638 60.3308 8.43896 60.6064 7.93913C60.8828 7.43931 61.2702 7.05584 61.7703 6.78864C62.2697 6.51289 62.8433 6.375 63.4892 6.375C64.3773 6.375 65.1098 6.64647 65.687 7.18936V6.56889H67.8844V12.3472C67.8844 13.4245 67.5531 14.2604 66.8893 14.855C66.2341 15.4496 65.213 15.747 63.8254 15.747ZM64.0837 11.2096C64.4373 11.2096 64.7519 11.1191 65.0276 10.9382C65.3032 10.7572 65.4973 10.5159 65.6092 10.2142V9.12847C65.4886 8.82678 65.2902 8.5898 65.0146 8.41744C64.7389 8.23647 64.4286 8.14598 64.0837 8.14598C63.6189 8.14598 63.2438 8.28384 62.9595 8.55958C62.6751 8.82678 62.533 9.19309 62.533 9.65842C62.533 10.1324 62.6751 10.5116 62.9595 10.796C63.2438 11.0718 63.6189 11.2096 64.0837 11.2096Z" fill="#303030"></path><path d="M72.288 12.9677C71.521 12.9677 70.8486 12.8298 70.2712 12.554C69.694 12.2696 69.2459 11.8819 68.927 11.3906C68.6167 10.8908 68.4615 10.3177 68.4615 9.67131C68.4615 9.025 68.6167 8.4562 68.927 7.965C69.2459 7.46518 69.694 7.07736 70.2712 6.80162C70.8486 6.51716 71.521 6.375 72.288 6.375C73.0551 6.375 73.727 6.51716 74.3048 6.80162C74.8822 7.07736 75.3259 7.46518 75.6362 7.965C75.9552 8.4562 76.1146 9.025 76.1146 9.67131C76.1146 10.3177 75.9552 10.8908 75.6362 11.3906C75.3259 11.8819 74.8822 12.2696 74.3048 12.554C73.727 12.8298 73.0551 12.9677 72.288 12.9677ZM72.288 11.1967C72.7448 11.1967 73.1064 11.0631 73.374 10.796C73.6497 10.5202 73.7875 10.1454 73.7875 9.67131C73.7875 9.19736 73.6497 8.82678 73.374 8.55958C73.1064 8.28384 72.7448 8.14598 72.288 8.14598C71.8313 8.14598 71.4648 8.28384 71.1891 8.55958C70.9221 8.82678 70.7886 9.19736 70.7886 9.67131C70.7886 10.1454 70.9221 10.5202 71.1891 10.796C71.4648 11.0631 71.8313 11.1967 72.288 11.1967Z" fill="#303030"></path><path d="M45.3534 16.0996H47.6415V25.1355H45.3534V16.0996Z" fill="#303030"></path><path d="M48.7997 18.9302H50.997V19.5506C51.5743 19.0078 52.3074 18.7363 53.195 18.7363C53.8408 18.7363 54.4144 18.8742 54.9138 19.15C55.4138 19.4171 55.8014 19.8006 56.0776 20.3004C56.3534 20.7916 56.4911 21.3648 56.4911 22.0197C56.4911 22.666 56.3534 23.2434 56.0776 23.7519C55.8014 24.2517 55.4138 24.6396 54.9138 24.9153C54.4231 25.1911 53.8495 25.329 53.195 25.329C52.7808 25.329 52.3847 25.2643 52.0057 25.1351C51.6349 25.0145 51.3247 24.8464 51.075 24.6309V27.9661H48.7997V18.9302ZM52.6004 23.558C53.0657 23.558 53.4403 23.4201 53.7247 23.1443C54.0089 22.8686 54.1511 22.4937 54.1511 22.0197C54.1511 21.5458 54.0089 21.1752 53.7247 20.908C53.4403 20.6322 53.0657 20.4944 52.6004 20.4944C52.2555 20.4944 51.9452 20.5849 51.6695 20.7658C51.3938 20.9381 51.1954 21.1752 51.075 21.4768V22.5755C51.1954 22.8772 51.3938 23.1185 51.6695 23.2994C51.9452 23.4719 52.2555 23.558 52.6004 23.558Z" fill="#303030"></path><path d="M59.8833 25.329C59.3832 25.329 58.8616 25.2772 58.3189 25.1738C57.7763 25.0791 57.3448 24.9412 57.0265 24.7602V23.0927C57.3794 23.2994 57.8016 23.4719 58.293 23.6097C58.793 23.739 59.2497 23.8036 59.6632 23.8036C59.9649 23.8036 60.1849 23.782 60.3227 23.739C60.4605 23.6959 60.5291 23.6097 60.5291 23.4804C60.5291 23.377 60.4822 23.2952 60.387 23.2349C60.3011 23.1659 60.1373 23.097 59.8963 23.028C59.6632 22.9505 59.3919 22.8686 59.0816 22.7824C58.5556 22.6273 58.1421 22.4678 57.8405 22.3041C57.5388 22.1403 57.3151 21.9336 57.1686 21.6836C57.0221 21.4337 56.9486 21.1191 56.9486 20.7399C56.9486 20.0678 57.2113 19.5679 57.7372 19.2405C58.2713 18.9043 59 18.7363 59.9216 18.7363C60.3697 18.7363 60.8395 18.7837 61.3308 18.8785C61.8308 18.9733 62.2054 19.0983 62.4557 19.2534V20.8951C62.1967 20.7227 61.8524 20.5805 61.4217 20.4685C60.9989 20.3565 60.6027 20.3004 60.2318 20.3004C59.9389 20.3004 59.7108 20.3305 59.547 20.3909C59.3832 20.4426 59.3017 20.5375 59.3017 20.6754C59.3017 20.8046 59.3832 20.9037 59.547 20.9726C59.7108 21.0416 60.0038 21.1278 60.4259 21.2312C60.7016 21.3001 60.8184 21.3303 60.7751 21.3217C61.3265 21.4681 61.753 21.6319 62.0546 21.8129C62.3562 21.9939 62.5675 22.2093 62.6881 22.4593C62.8173 22.7005 62.8822 23.0107 62.8822 23.3899C62.8822 23.9846 62.6238 24.4586 62.1065 24.8119C61.5978 25.1566 60.8567 25.329 59.8833 25.329Z" fill="#303030"></path><path d="M66.2792 25.3284C65.4262 25.3284 64.7841 25.0915 64.3532 24.6175C63.9311 24.1435 63.7197 23.5188 63.7197 22.7431V18.9297H65.9949V22.4845C65.9949 23.1998 66.3181 23.5575 66.9641 23.5575C67.2576 23.5575 67.5246 23.4885 67.7657 23.3507C68.0074 23.2128 68.2052 23.0102 68.3603 22.7431V18.9297H70.6355V25.1346H68.4381V24.4623C68.1711 24.7468 67.8479 24.9622 67.4683 25.1087C67.0895 25.2552 66.6927 25.3284 66.2792 25.3284Z" fill="#303030"></path><path d="M71.8005 18.9302H73.9076V19.6024C74.1659 19.3266 74.4632 19.1155 74.7995 18.969C75.1356 18.8138 75.4935 18.7363 75.8724 18.7363C76.3378 18.7363 76.7087 18.8052 76.9844 18.9431C77.2686 19.081 77.4967 19.2878 77.6692 19.5636C77.9276 19.305 78.2421 19.1026 78.613 18.9561C78.9832 18.8096 79.3584 18.7363 79.7372 18.7363C80.5563 18.7363 81.1379 18.9474 81.4828 19.3697C81.8276 19.7834 82.0001 20.3823 82.0001 21.1665V25.1351H79.8281V21.4897C79.8281 21.145 79.7632 20.8951 79.634 20.7399C79.5049 20.5849 79.2892 20.5073 78.9876 20.5073C78.6 20.5073 78.2854 20.6452 78.0444 20.9209C78.053 21.0674 78.0573 21.2915 78.0573 21.5931V25.1351H75.8854V21.3993C75.8854 21.0803 75.8292 20.852 75.7172 20.7141C75.6054 20.5762 75.407 20.5073 75.1227 20.5073C74.6832 20.5073 74.3037 20.7529 73.9854 21.2441V25.1351H71.8005V18.9302Z" fill="#303030"></path><path d="M20.0264 19.5862L19.8498 19.6236L25.3296 25.1035V40H20.6399L15.1227 34.4828H19.8124V19.5861H15.1227V14.8966H19.8124V0L25.3296 5.51724V14.8965L19.8124 14.8966V19.5861L20.0264 19.5862Z" fill="#555555"></path><path d="M34.7091 19.5862L40.2263 25.1034V20.4137L34.7091 14.8965V19.5862Z" fill="#555555"></path><path d="M45.6766 29.376H49.0246C49.9725 29.376 50.7092 29.6001 51.2352 30.0482C51.7692 30.4963 52.0368 31.1599 52.0368 32.0389C52.0368 32.9266 51.7735 33.5902 51.2482 34.0298C50.7221 34.4692 49.9811 34.689 49.0246 34.689H46.6849V38.4119H45.6766V29.376ZM48.9471 33.8358C49.5935 33.8358 50.1022 33.7066 50.4725 33.448C50.8433 33.1809 51.0281 32.7112 51.0281 32.0389C51.0281 31.3581 50.8433 30.8884 50.4725 30.6299C50.1022 30.3627 49.5935 30.2292 48.9471 30.2292H46.6849V33.8358H48.9471Z" fill="#555555"></path><path d="M53.3268 28.8594H54.3219V38.4124H53.3268V28.8594Z" fill="#555555"></path><path d="M58.6373 38.6059C57.8097 38.6059 57.1718 38.3818 56.7237 37.9336C56.2842 37.4855 56.0648 36.8866 56.0648 36.1368V32.207H57.0599V36.1885C57.0599 37.2744 57.6242 37.8173 58.7534 37.8173C59.2276 37.8173 59.641 37.7139 59.9946 37.5071C60.3562 37.3002 60.6794 36.9727 60.9638 36.5246V32.207H61.9595V38.4119H60.9897V37.4812C60.4297 38.2309 59.6453 38.6059 58.6373 38.6059Z" fill="#555555"></path><path d="M65.9257 38.6064C65.5202 38.6064 65.0851 38.546 64.6197 38.4254C64.1543 38.3133 63.7927 38.1712 63.5338 37.9987V37.1586C63.8613 37.3568 64.2365 37.5162 64.6586 37.6368C65.0894 37.7575 65.5029 37.8178 65.8997 37.8178C66.4338 37.8178 66.8176 37.7445 67.05 37.598C67.2916 37.4429 67.4122 37.2146 67.4122 36.913C67.4122 36.6802 67.3602 36.4993 67.257 36.37C67.1532 36.2321 66.9814 36.1114 66.7397 36.0081C66.4986 35.9046 66.1235 35.784 65.6154 35.6461C65.1154 35.5082 64.7149 35.366 64.4132 35.2195C64.1203 35.0643 63.8959 34.8705 63.7408 34.6378C63.5857 34.4051 63.5084 34.1078 63.5084 33.7458C63.5084 33.1857 63.7322 32.7591 64.1802 32.4661C64.637 32.1644 65.2402 32.0137 65.99 32.0137C66.3948 32.0137 66.7743 32.0524 67.1279 32.1299C67.4895 32.1989 67.7911 32.298 68.0328 32.4274V33.2675C67.7824 33.1297 67.4808 33.0219 67.1279 32.9443C66.7743 32.8582 66.4078 32.8151 66.029 32.8151C65.5289 32.8151 65.15 32.8883 64.891 33.0348C64.6327 33.1814 64.5035 33.4184 64.5035 33.7458C64.5035 33.9699 64.5467 34.1423 64.6327 34.2629C64.7279 34.3835 64.8954 34.4956 65.137 34.599C65.3867 34.6939 65.7835 34.8145 66.3262 34.961C67.1019 35.1764 67.6402 35.4306 67.9418 35.7237C68.2522 36.0081 68.4073 36.4045 68.4073 36.913C68.4073 37.4386 68.2009 37.8522 67.7867 38.1539C67.3819 38.4555 66.7613 38.6064 65.9257 38.6064Z" fill="#555555"></path></svg> 