<?xml version="1.0" encoding="UTF-8"?> <svg xmlns="http://www.w3.org/2000/svg" width="100" height="41" viewBox="0 0 100 41" fill="none"><path d="M0 31.2731V0H6.61195V25.8217H20.0191V31.2731H0Z" fill="#171717"></path><path d="M34.8731 31.7312C32.5011 31.7312 30.4498 31.2273 28.7192 30.2195C26.9988 29.2015 25.6703 27.7865 24.7337 25.9744C23.7972 24.1522 23.3289 22.0398 23.3289 19.6373C23.3289 17.2145 23.7972 15.097 24.7337 13.285C25.6703 11.4627 26.9988 10.0477 28.7192 9.03989C30.4498 8.02189 32.5011 7.51288 34.8731 7.51288C37.245 7.51288 39.2912 8.02189 41.0116 9.03989C42.7422 10.0477 44.0758 11.4627 45.0124 13.285C45.949 15.097 46.4173 17.2145 46.4173 19.6373C46.4173 22.0398 45.949 24.1522 45.0124 25.9744C44.0758 27.7865 42.7422 29.2015 41.0116 30.2195C39.2912 31.2273 37.245 31.7312 34.8731 31.7312ZM34.9036 26.6921C35.9827 26.6921 36.8836 26.3867 37.6064 25.7759C38.3292 25.1549 38.8738 24.31 39.2403 23.2411C39.617 22.1722 39.8053 20.9557 39.8053 19.5915C39.8053 18.2274 39.617 17.0109 39.2403 15.942C38.8738 14.8731 38.3292 14.0281 37.6064 13.4071C36.8836 12.7862 35.9827 12.4757 34.9036 12.4757C33.8143 12.4757 32.8981 12.7862 32.155 13.4071C31.422 14.0281 30.8672 14.8731 30.4906 15.942C30.1241 17.0109 29.9408 18.2274 29.9408 19.5915C29.9408 20.9557 30.1241 22.1722 30.4906 23.2411C30.8672 24.31 31.422 25.1549 32.155 25.7759C32.8981 26.3867 33.8143 26.6921 34.9036 26.6921Z" fill="#171717"></path><path d="M61.214 40.5574C59.1067 40.5574 57.2997 40.2672 55.7931 39.687C54.2966 39.1169 53.1055 38.3381 52.2199 37.3506C51.3342 36.3632 50.759 35.2536 50.4944 34.0218L56.5108 33.2124C56.694 33.6807 56.9842 34.1185 57.3812 34.5257C57.7782 34.9329 58.3025 35.2586 58.954 35.503C59.6157 35.7575 60.4199 35.8847 61.3667 35.8847C62.7817 35.8847 63.9473 35.5386 64.8635 34.8463C65.7899 34.1643 66.2531 33.019 66.2531 31.4106V27.1197H65.9782C65.6932 27.7712 65.2656 28.3871 64.6955 28.9674C64.1255 29.5476 63.3925 30.021 62.4967 30.3875C61.6008 30.754 60.5319 30.9372 59.2899 30.9372C57.5288 30.9372 55.9254 30.53 54.4799 29.7156C53.0445 28.891 51.8992 27.6338 51.0441 25.9439C50.1991 24.2438 49.7767 22.0958 49.7767 19.4999C49.7767 16.8429 50.2093 14.6237 51.0746 12.8421C51.9399 11.0606 53.0903 9.72705 54.5257 8.84138C55.9712 7.95572 57.5542 7.51288 59.2747 7.51288C60.5879 7.51288 61.6873 7.73685 62.573 8.18477C63.4587 8.62251 64.1713 9.17224 64.7108 9.83394C65.2605 10.4855 65.683 11.1268 65.9782 11.758H66.2226V7.81829H72.6818V31.5022C72.6818 33.4975 72.1932 35.167 71.2159 36.5108C70.2386 37.8546 68.8846 38.8624 67.154 39.5343C65.4336 40.2163 63.4536 40.5574 61.214 40.5574ZM61.3514 26.0508C62.3999 26.0508 63.2856 25.7912 64.0084 25.272C64.7414 24.7426 65.3013 23.9893 65.6881 23.012C66.0851 22.0246 66.2836 20.8437 66.2836 19.4694C66.2836 18.0951 66.0902 16.904 65.7034 15.8962C65.3165 14.8782 64.7566 14.0892 64.0237 13.5293C63.2907 12.9694 62.3999 12.6894 61.3514 12.6894C60.2825 12.6894 59.3816 12.9796 58.6486 13.5598C57.9156 14.1299 57.3608 14.924 56.9842 15.942C56.6075 16.96 56.4192 18.1358 56.4192 19.4694C56.4192 20.8233 56.6075 21.994 56.9842 22.9815C57.371 23.9588 57.9258 24.7172 58.6486 25.2567C59.3816 25.7861 60.2825 26.0508 61.3514 26.0508Z" fill="#171717"></path><path d="M88.4558 31.7312C86.0839 31.7312 84.0326 31.2273 82.302 30.2195C80.5815 29.2015 79.253 27.7865 78.3165 25.9744C77.3799 24.1522 76.9116 22.0398 76.9116 19.6373C76.9116 17.2145 77.3799 15.097 78.3165 13.285C79.253 11.4627 80.5815 10.0477 82.302 9.03989C84.0326 8.02189 86.0839 7.51288 88.4558 7.51288C90.8278 7.51288 92.874 8.02189 94.5944 9.03989C96.325 10.0477 97.6586 11.4627 98.5951 13.285C99.5317 15.097 100 17.2145 100 19.6373C100 22.0398 99.5317 24.1522 98.5951 25.9744C97.6586 27.7865 96.325 29.2015 94.5944 30.2195C92.874 31.2273 90.8278 31.7312 88.4558 31.7312ZM88.4863 26.6921C89.5654 26.6921 90.4664 26.3867 91.1892 25.7759C91.9119 25.1549 92.4566 24.31 92.8231 23.2411C93.1997 22.1722 93.388 20.9557 93.388 19.5915C93.388 18.2274 93.1997 17.0109 92.8231 15.942C92.4566 14.8731 91.9119 14.0281 91.1892 13.4071C90.4664 12.7862 89.5654 12.4757 88.4863 12.4757C87.3971 12.4757 86.4809 12.7862 85.7377 13.4071C85.0048 14.0281 84.45 14.8731 84.0733 15.942C83.7068 17.0109 83.5236 18.2274 83.5236 19.5915C83.5236 20.9557 83.7068 22.1722 84.0733 23.2411C84.45 24.31 85.0048 25.1549 85.7377 25.7759C86.4809 26.3867 87.3971 26.6921 88.4863 26.6921Z" fill="#171717"></path></svg> 