<?xml version="1.0" encoding="UTF-8"?> <svg xmlns="http://www.w3.org/2000/svg" width="1920" height="1080" viewBox="0 0 1920 1080" fill="none"><g clip-path="url(#clip0_208_271)"><path d="M1920 0H0V1080H1920V0Z" fill="#E5E5E5"></path><path d="M1106.18 365H813.529C798.012 365.017 783.134 371.168 772.162 382.104C761.189 393.04 755.017 407.868 755 423.333V656.667C755.017 672.132 761.189 686.96 772.162 697.896C783.134 708.832 798.012 714.983 813.529 715H1106.18C1121.69 714.983 1136.57 708.832 1147.54 697.896C1158.52 686.96 1164.69 672.132 1164.71 656.667V423.333C1164.69 407.868 1158.52 393.04 1147.54 382.104C1136.57 371.168 1121.69 365.017 1106.18 365ZM1033.01 423.333C1041.7 423.333 1050.18 425.899 1057.4 430.707C1064.62 435.514 1070.25 442.347 1073.57 450.341C1076.89 458.335 1077.76 467.132 1076.07 475.619C1074.37 484.105 1070.19 491.901 1064.05 498.019C1057.92 504.138 1050.09 508.305 1041.58 509.993C1033.06 511.681 1024.24 510.814 1016.22 507.503C1008.19 504.192 1001.34 498.584 996.516 491.39C991.692 484.195 989.118 475.736 989.118 467.083C989.13 455.484 993.758 444.363 1001.99 436.161C1010.22 427.959 1021.38 423.345 1033.01 423.333ZM813.529 685.833C805.768 685.833 798.324 682.76 792.836 677.291C787.348 671.821 784.265 664.402 784.265 656.667V595.025L870.998 518.189C879.366 510.792 890.249 506.853 901.43 507.175C912.611 507.497 923.247 512.055 931.174 519.921L990.572 578.992L883.371 685.833H813.529ZM1135.44 656.667C1135.44 664.402 1132.36 671.821 1126.87 677.291C1121.38 682.76 1113.94 685.833 1106.18 685.833H924.763L1035.8 575.164C1043.67 568.501 1053.64 564.83 1063.96 564.803C1074.28 564.776 1084.28 568.396 1092.18 575.018L1135.44 610.948V656.667Z" fill="#A3A3A3"></path></g><defs><clipPath id="clip0_208_271"><rect width="1920" height="1080" fill="white"></rect></clipPath></defs></svg> 